<?xml version="1.0" standalone="no"?>
<!DOCTYPE svg PUBLIC "-//W3C//DTD SVG 20010904//EN"
 "http://www.w3.org/TR/2001/REC-SVG-20010904/DTD/svg10.dtd">
<svg version="1.0" xmlns="http://www.w3.org/2000/svg"
 width="142.000000pt" height="63.000000pt" viewBox="0 0 142.000000 63.000000"
 preserveAspectRatio="xMidYMid meet">

<g transform="translate(0.000000,63.000000) scale(0.100000,-0.100000)"
fill="#000000" stroke="none">
<path d="M215 472 c-34 -24 -125 -146 -125 -168 0 -35 27 -42 152 -40 89 1
110 5 127 20 12 11 21 23 21 28 0 5 -41 8 -90 7 -50 -1 -93 0 -95 2 -2 2 17
28 42 57 l45 52 97 0 c91 0 99 2 121 25 l23 25 -154 0 c-85 0 -159 -4 -164 -8z"/>
<path d="M475 380 c-44 -54 -81 -103 -83 -108 -1 -5 20 -9 47 -9 l50 -1 78 95
c43 53 84 102 91 109 11 12 4 14 -45 13 l-58 0 -80 -99z"/>
<path d="M695 472 c-17 -12 -85 -95 -85 -104 0 -4 37 -8 82 -8 80 0 81 0 63
-20 -15 -17 -31 -20 -105 -20 -71 0 -90 -3 -103 -18 -33 -36 -22 -40 125 -38
l142 2 43 49 c65 74 55 95 -45 95 -39 0 -61 4 -57 10 3 6 50 10 103 10 91 1
98 2 115 25 l18 25 -143 0 c-79 0 -148 -4 -153 -8z"/>
<path d="M938 380 c-46 -56 -84 -105 -86 -110 -4 -10 275 -6 300 5 31 13 138
154 131 173 -11 29 -24 32 -145 32 l-117 0 -83 -100z m220 40 c-1 -5 -19 -30
-38 -55 -32 -40 -39 -44 -78 -45 l-44 0 34 41 c18 22 37 47 43 55 11 16 89 20
83 4z"/>
<path d="M88 213 c-23 -26 -31 -60 -19 -80 9 -16 10 -14 11 10 0 15 7 41 15
57 18 34 15 38 -7 13z"/>
<path d="M245 218 c-7 -18 -6 -23 20 -68 12 -21 15 -22 21 -7 4 10 0 25 -9 35
-8 9 -17 26 -19 37 -5 18 -6 18 -13 3z"/>
<path d="M328 180 c-13 -39 -13 -50 -3 -50 7 0 18 20 24 44 13 53 13 56 3 56
-5 0 -15 -22 -24 -50z"/>
<path d="M598 213 c-26 -31 -29 -42 -18 -63 15 -28 28 -25 22 5 -2 14 3 36 12
50 19 28 7 34 -16 8z"/>
<path d="M665 220 c3 -5 8 -10 11 -10 2 0 4 5 4 10 0 6 -5 10 -11 10 -5 0 -7
-4 -4 -10z"/>
<path d="M766 216 c3 -7 -1 -30 -10 -49 -11 -28 -11 -35 -2 -31 30 12 44 94
16 94 -5 0 -7 -6 -4 -14z"/>
<path d="M931 186 c-13 -54 -13 -56 -1 -56 9 0 30 61 30 88 0 29 -19 8 -29
-32z"/>
<path d="M1052 184 c-7 -26 -10 -49 -7 -52 8 -9 14 2 29 51 11 35 11 47 2 47
-6 0 -17 -21 -24 -46z"/>
<path d="M1129 188 c-6 -24 -13 -46 -16 -50 -2 -5 2 -8 10 -8 8 0 17 12 21 28
3 15 8 37 12 50 4 13 2 22 -4 22 -6 0 -16 -19 -23 -42z"/>
<path d="M1187 197 c3 -20 1 -37 -6 -41 -6 -4 -11 -12 -11 -18 0 -6 9 -3 20 7
23 21 26 57 5 75 -12 10 -13 6 -8 -23z"/>
<path d="M177 213 c-11 -10 -8 -83 3 -83 6 0 10 20 10 45 0 46 -2 50 -13 38z"/>
<path d="M434 210 c-12 -12 -6 -80 7 -80 5 0 9 20 9 45 0 48 -1 50 -16 35z"/>
<path d="M502 202 c-1 -12 -9 -39 -17 -60 l-16 -37 21 21 c16 16 20 30 17 60
-2 21 -4 29 -5 16z"/>
<path d="M703 208 c-16 -21 -23 -47 -17 -63 10 -24 24 -17 24 11 0 14 5 34 10
45 12 21 -2 26 -17 7z"/>
<path d="M215 140 c-3 -5 -1 -10 4 -10 6 0 11 5 11 10 0 6 -2 10 -4 10 -3 0
-8 -4 -11 -10z"/>
<path d="M790 140 c0 -5 5 -10 11 -10 5 0 7 5 4 10 -3 6 -8 10 -11 10 -2 0 -4
-4 -4 -10z"/>
<path d="M840 134 c0 -8 5 -12 10 -9 6 4 8 11 5 16 -9 14 -15 11 -15 -7z"/>
<path d="M1220 140 c0 -5 5 -10 11 -10 5 0 7 5 4 10 -3 6 -8 10 -11 10 -2 0
-4 -4 -4 -10z"/>
<path d="M970 129 c0 -5 5 -7 10 -4 6 3 10 8 10 11 0 2 -4 4 -10 4 -5 0 -10
-5 -10 -11z"/>
</g>
</svg>
