<?xml version="1.0" standalone="no"?>
<!DOCTYPE svg PUBLIC "-//W3C//DTD SVG 20010904//EN"
 "http://www.w3.org/TR/2001/REC-SVG-20010904/DTD/svg10.dtd">
<svg version="1.0" xmlns="http://www.w3.org/2000/svg"
 width="512.000000pt" height="197.000000pt" viewBox="0 0 512.000000 197.000000"
 preserveAspectRatio="xMidYMid meet">

<g transform="translate(0.000000,197.000000) scale(0.100000,-0.100000)"
fill="#000000" stroke="none">
<path d="M950 1963 c-180 -29 -268 -56 -400 -124 -269 -138 -454 -363 -522
-636 -32 -126 -31 -315 1 -433 60 -224 178 -401 359 -537 177 -134 389 -212
624 -230 l78 -6 0 296 0 296 43 29 c23 16 59 35 80 43 34 12 42 12 69 -4 32
-19 83 -21 241 -10 l97 6 0 34 c0 44 11 42 31 -6 14 -32 22 -39 55 -44 22 -4
53 -9 71 -13 30 -6 32 -5 39 31 8 42 20 36 29 -15 3 -19 13 -39 22 -45 9 -5
32 -23 50 -39 40 -34 48 -28 59 40 18 123 -102 192 -346 201 -117 5 -148 2
-220 -16 -101 -25 -188 -65 -252 -114 -27 -20 -48 -34 -48 -31 0 13 36 73 67
112 47 58 86 77 124 62 25 -11 39 -8 106 18 43 17 99 38 124 47 l47 17 -5 41
-5 42 29 -35 30 -34 52 12 c29 7 65 12 80 12 25 0 26 2 23 40 -2 22 -2 40 1
40 2 0 16 -17 29 -38 21 -31 34 -40 79 -50 30 -7 64 -15 77 -18 19 -6 22 -2
22 23 0 84 -78 154 -187 168 -101 12 -282 -30 -393 -93 -145 -82 -278 -235
-316 -362 l-15 -50 -41 26 c-22 14 -58 32 -80 40 -36 12 -44 12 -78 -4 -31
-14 -54 -16 -136 -11 -55 4 -120 7 -146 8 l-48 1 0 43 -1 42 -22 -45 c-21 -43
-24 -45 -86 -57 -68 -14 -80 -10 -81 29 0 36 -18 26 -30 -18 -8 -27 -21 -49
-34 -56 -12 -6 -33 -22 -48 -35 -25 -24 -27 -24 -36 -7 -5 11 -12 34 -15 52
-30 156 265 255 548 183 88 -22 223 -86 295 -140 l35 -26 -19 30 c-67 107
-136 161 -191 151 -26 -5 -51 0 -102 22 -38 16 -92 37 -122 47 l-53 17 6 42 6
41 -29 -34 c-29 -33 -29 -33 -81 -22 -28 6 -64 11 -79 11 -28 0 -28 1 -24 48
l5 47 -30 -44 c-28 -40 -37 -46 -99 -62 -37 -10 -71 -18 -75 -18 -15 -2 -8 61
12 99 31 62 84 84 195 84 245 1 500 -147 651 -377 38 -58 42 -47 18 46 -26
101 -68 167 -106 167 -11 0 -61 42 -114 94 -153 154 -305 243 -446 262 -27 4
-48 9 -48 12 0 20 52 76 86 92 76 37 167 19 281 -57 138 -91 281 -288 341
-467 27 -79 31 -86 42 -67 10 19 14 73 11 135 -1 10 -16 32 -35 50 -22 21 -39
49 -49 86 -9 30 -30 88 -46 128 -16 39 -27 72 -23 72 4 0 20 10 35 23 l28 22
-44 -3 -44 -4 -37 59 -36 58 32 28 33 28 -47 -6 c-45 -6 -50 -4 -107 42 -33
26 -60 53 -60 60 -1 16 54 33 111 33 126 0 259 -174 311 -409 l24 -103 23 63
c55 153 137 281 234 364 31 27 56 52 56 56 0 13 -62 29 -112 29 -28 0 -64 -8
-86 -19 -56 -29 -125 -110 -164 -191 -16 -34 -16 -22 -17 278 l-1 312 -57 -1
c-32 -1 -69 -4 -83 -6z"/>
<path d="M4040 1391 c-109 -33 -170 -115 -170 -228 0 -113 50 -172 201 -234
94 -39 149 -84 149 -122 0 -35 -43 -83 -87 -98 -45 -14 -131 -5 -190 21 -50
22 -49 24 -57 -66 l-5 -61 56 -12 c86 -17 244 -14 295 6 104 40 151 109 151
222 0 42 -6 78 -16 98 -26 50 -91 98 -190 139 -107 44 -137 69 -137 116 0 71
61 114 149 105 31 -4 75 -13 97 -21 l41 -14 7 65 c4 36 5 68 2 71 -20 19 -243
29 -296 13z"/>
<path d="M1595 1380 c-127 -31 -296 -163 -391 -305 -33 -48 -42 -72 -47 -122
l-7 -63 28 0 c21 1 54 27 144 114 l116 112 -20 32 c-23 37 -20 38 30 14 l37
-19 61 37 62 36 -15 28 c-19 37 -11 42 25 16 30 -22 30 -22 108 -5 44 10 85
19 92 21 22 6 -29 71 -74 93 -42 21 -94 25 -149 11z"/>
<path d="M2420 990 l0 -400 163 0 c236 0 339 31 426 125 71 77 102 218 82 363
-19 128 -83 217 -191 266 -75 34 -159 46 -332 46 l-148 0 0 -400z m336 257
c66 -22 111 -64 145 -133 30 -59 31 -70 26 -138 -8 -105 -58 -190 -136 -230
-30 -16 -129 -36 -178 -36 l-33 0 0 281 0 282 68 -6 c37 -3 86 -12 108 -20z"/>
<path d="M3190 990 l0 -400 80 0 80 0 2 181 3 180 138 -180 138 -181 105 0
c81 0 103 3 98 12 -4 7 -44 58 -88 112 -178 218 -236 291 -236 298 0 6 228
274 298 351 l26 27 -100 0 -101 0 -120 -142 c-67 -79 -131 -154 -142 -168
l-20 -25 -1 168 0 167 -80 0 -80 0 0 -400z"/>
<path d="M4470 990 l0 -400 80 0 80 0 2 173 3 172 163 3 162 2 0 -175 0 -175
80 0 80 0 0 400 0 400 -80 0 -80 0 0 -160 0 -160 -165 0 -165 0 0 160 0 160
-80 0 -80 0 0 -400z"/>
</g>
</svg>
