<svg xmlns="http://www.w3.org/2000/svg" viewBox="0 0 400 200" fill="none">
  <rect width="400" height="200" rx="16" fill="#1a1a2e"/>
  <rect width="400" height="200" rx="16" fill="url(#dkshGrad)" opacity="0.85"/>
  <defs>
    <linearGradient id="dkshGrad" x1="0" y1="200" x2="400" y2="0">
      <stop offset="0%" stop-color="#1b3a6b"/>
      <stop offset="50%" stop-color="#2b77e7"/>
      <stop offset="100%" stop-color="#00c6ff"/>
    </linearGradient>
  </defs>
  <circle cx="200" cy="105" r="55" fill="none" stroke="white" stroke-width="2" opacity="0.3"/>
  <circle cx="200" cy="105" r="38" fill="none" stroke="white" stroke-width="1.5" opacity="0.4"/>
  <ellipse cx="200" cy="105" rx="55" ry="20" fill="none" stroke="white" stroke-width="1.5" opacity="0.5"/>
  <line x1="145" y1="105" x2="255" y2="105" stroke="white" stroke-width="1" opacity="0.3"/>
  <path d="M200 50v110M145 105h110" stroke="white" stroke-width="1" opacity="0.25"/>
  <circle cx="155" cy="80" r="6" fill="#00c6ff"/>
  <circle cx="245" cy="90" r="6" fill="#00c6ff"/>
  <circle cx="200" cy="60" r="6" fill="white"/>
  <circle cx="175" cy="130" r="5" fill="white" opacity="0.7"/>
  <circle cx="230" cy="125" r="5" fill="white" opacity="0.7"/>
  <path d="M280 140l25-40 25 40H280z" fill="white" opacity="0.15"/>
  <path d="M290 130h30l-15-25-15 25z" fill="white" opacity="0.4"/>
  <rect x="60" y="130" width="15" height="40" rx="2" fill="white" opacity="0.5"/>
  <rect x="82" y="115" width="15" height="55" rx="2" fill="white" opacity="0.7"/>
  <rect x="104" y="100" width="15" height="70" rx="2" fill="white" opacity="0.9"/>
  <text x="30" y="45" fill="white" font-family="Arial,sans-serif" font-weight="bold" font-size="18">DKSH Market Expansion</text>
  <text x="30" y="175" fill="white" font-family="Arial,sans-serif" font-size="13" opacity="0.8">Angular · TypeScript · Material UI</text>
</svg>
