<?xml version="1.0" standalone="no"?>
<!DOCTYPE svg PUBLIC "-//W3C//DTD SVG 20010904//EN"
 "http://www.w3.org/TR/2001/REC-SVG-20010904/DTD/svg10.dtd">
<svg version="1.0" xmlns="http://www.w3.org/2000/svg"
 width="980.000000pt" height="980.000000pt" viewBox="0 0 980.000000 980.000000"
 preserveAspectRatio="xMidYMid meet">

<g transform="translate(0.000000,980.000000) scale(0.100000,-0.100000)"
fill="#000000" stroke="none">
<path d="M0 4900 l0 -4900 4900 0 4900 0 0 4900 0 4900 -4900 0 -4900 0 0
-4900z m3120 1815 c118 -110 244 -228 281 -262 37 -35 69 -63 73 -63 3 0 6 7
6 16 0 14 41 16 428 12 397 -5 433 -6 505 -26 283 -77 464 -300 498 -612 13
-119 6 -625 -9 -682 -9 -34 -8 -38 29 -74 l39 -38 0 399 c1 424 6 493 50 608
70 185 263 367 455 428 97 30 285 38 388 15 205 -46 392 -195 487 -391 59
-121 70 -190 70 -446 l0 -219 -235 0 -235 0 0 193 c0 237 -9 277 -79 347 -128
128 -327 99 -416 -61 l-30 -54 -3 -650 -2 -650 177 -190 c97 -104 212 -226
254 -269 l77 -80 11 40 c6 23 11 131 11 262 l0 222 235 0 235 0 0 -254 c0
-284 -9 -355 -61 -465 -16 -35 -45 -86 -65 -113 l-35 -49 193 -207 c106 -114
227 -243 269 -287 158 -166 284 -306 284 -318 1 -7 6 -11 11 -10 6 1 11 -5 11
-13 0 -9 -21 5 -51 33 -28 27 -118 112 -201 188 -82 77 -184 171 -225 210 -41
39 -113 107 -160 150 -47 44 -110 103 -140 132 l-55 52 -59 -45 c-128 -98
-234 -134 -406 -141 -149 -6 -248 13 -370 74 -112 56 -252 198 -308 313 -74
151 -75 160 -80 577 l-3 371 -32 27 c-18 15 -56 51 -84 78 l-53 51 -71 -77
c-78 -85 -155 -142 -245 -182 -96 -43 -172 -55 -366 -55 l-178 0 -2 -572 -3
-573 -227 -3 -228 -2 0 1438 0 1438 -222 238 c-419 449 -466 501 -461 509 3 4
28 -14 57 -40 28 -26 148 -138 266 -248z"/>
<path d="M2890 6905 c52 -55 201 -208 330 -340 1342 -1367 1779 -1811 1917
-1945 76 -74 248 -243 383 -375 135 -132 360 -352 500 -490 140 -137 370 -362
510 -500 140 -137 305 -297 365 -355 l110 -105 -125 130 c-120 124 -801 821
-1335 1365 -339 346 -953 959 -1275 1275 -408 400 -710 695 -1005 985 -148
146 -315 308 -370 360 l-100 95 95 -100z"/>
<path d="M3951 5943 c0 -5 116 -115 257 -247 l257 -238 3 146 c2 131 0 151
-19 196 -28 64 -84 115 -150 134 -55 17 -350 24 -348 9z"/>
<path d="M3940 5372 l0 -394 173 4 c153 3 176 5 212 25 54 29 100 78 125 136
l21 47 -20 26 c-11 14 -80 89 -153 167 -73 78 -169 180 -212 227 -44 47 -94
101 -113 120 l-33 35 0 -393z"/>
<path d="M5422 4128 c4 -101 8 -131 26 -164 27 -53 73 -99 126 -126 58 -31
165 -30 224 0 40 22 52 37 33 44 -5 2 -73 64 -152 138 -223 210 -245 230 -254
230 -4 0 -5 -55 -3 -122z"/>
</g>
</svg>
