<?xml version="1.0" standalone="no"?>
<!DOCTYPE svg PUBLIC "-//W3C//DTD SVG 20010904//EN"
 "http://www.w3.org/TR/2001/REC-SVG-20010904/DTD/svg10.dtd">
<svg version="1.0" xmlns="http://www.w3.org/2000/svg"
 width="1464.000000pt" height="811.000000pt" viewBox="0 0 1464.000000 811.000000"
 preserveAspectRatio="xMidYMid meet">

<g transform="translate(0.000000,811.000000) scale(0.100000,-0.100000)"
fill="#000000" stroke="none">
<path d="M8421 8090 c-28 -10 -48 -26 -53 -40 -5 -13 -15 -28 -24 -34 -11 -8
-14 -25 -12 -56 3 -41 5 -45 30 -45 36 -1 41 -8 27 -38 -10 -22 -9 -31 5 -53
l18 -26 23 22 24 22 13 -21 c21 -34 51 -26 88 24 32 42 37 45 81 45 41 0 54
-6 104 -46 40 -33 54 -49 46 -57 -19 -19 -12 -23 29 -19 33 3 44 -1 70 -26 16
-17 53 -44 82 -60 47 -27 54 -29 72 -16 28 19 49 18 64 -6 7 -11 19 -20 26
-20 8 0 30 -19 50 -41 33 -39 38 -41 74 -35 26 4 45 1 58 -9 10 -7 29 -11 41
-9 11 3 32 -1 45 -9 12 -9 39 -19 60 -22 20 -4 46 -17 58 -30 12 -13 28 -21
36 -18 7 3 38 -3 68 -12 30 -10 62 -15 70 -12 8 3 20 0 26 -8 6 -8 21 -15 33
-17 19 -3 22 -8 19 -39 -4 -42 8 -54 62 -62 21 -4 48 -15 60 -25 33 -31 115
-33 199 -7 40 13 89 26 109 30 35 7 37 5 43 -21 3 -16 10 -36 16 -44 20 -33
21 -43 6 -70 -12 -20 -13 -30 -5 -38 15 -15 45 -16 53 -2 3 6 19 10 36 10 22
0 29 -5 29 -19 0 -11 -4 -23 -10 -26 -5 -3 -10 -16 -10 -28 l0 -21 16 22 c15
22 74 32 74 12 0 -15 37 -12 70 5 16 8 36 12 44 9 19 -7 21 -34 3 -34 -16 0
-84 -56 -77 -63 3 -3 41 4 85 17 54 14 80 27 80 36 0 8 -6 16 -12 16 -7 1 -17
2 -23 3 -16 2 -12 27 8 44 23 21 62 22 62 2 0 -21 10 -19 145 16 93 24 119 28
126 18 4 -7 5 -17 3 -21 -7 -11 10 -10 79 4 55 12 60 11 73 -7 10 -14 24 -19
44 -17 17 2 30 -1 30 -8 0 -8 6 -8 20 0 22 12 60 5 60 -11 0 -5 -7 -12 -15
-15 -8 -4 -15 -17 -15 -30 0 -21 4 -24 25 -18 22 5 25 3 25 -20 0 -31 27 -26
32 7 3 19 10 22 61 25 31 2 57 0 57 -3 0 -4 -9 -20 -21 -36 -14 -21 -29 -29
-50 -29 -16 0 -29 -5 -29 -11 0 -7 9 -9 23 -5 12 4 69 18 126 32 l103 25 15
-21 c8 -11 22 -19 31 -18 11 2 18 -5 20 -20 3 -20 8 -23 30 -17 14 3 39 17 55
31 31 26 43 29 52 13 4 -6 22 -8 45 -4 28 5 46 2 64 -10 14 -10 40 -15 60 -14
21 2 41 -3 53 -13 10 -9 35 -19 55 -23 28 -5 40 -14 52 -40 9 -18 25 -35 36
-38 14 -3 21 -17 26 -46 4 -25 12 -41 20 -41 8 0 14 -10 14 -23 0 -25 26 -51
61 -62 13 -4 27 -13 32 -19 5 -7 14 -3 27 13 22 26 26 57 8 63 -6 2 -9 9 -5
15 8 12 57 5 57 -8 0 -5 11 -9 24 -9 27 0 56 24 56 46 0 26 48 21 68 -7 15
-22 21 -23 59 -7 15 6 32 10 37 9 5 -1 32 3 59 10 47 11 51 10 67 -11 12 -16
23 -20 37 -16 12 4 25 1 32 -8 32 -38 101 -22 120 27 7 18 24 27 82 40 41 10
218 59 394 110 l320 92 16 35 c15 31 24 37 90 56 l74 21 8 -23 c5 -13 14 -24
21 -24 6 0 99 25 206 56 189 53 197 57 241 100 38 38 62 50 135 73 l89 28 3
386 2 387 -3087 -1 c-2918 -1 -3090 -2 -3132 -19z m79 -130 c0 -5 -4 -10 -10
-10 -5 0 -10 5 -10 10 0 6 5 10 10 10 6 0 10 -4 10 -10z m-31 -42 c0 -7 -4
-21 -8 -31 -6 -17 -8 -17 -20 -3 -7 9 -11 23 -7 31 7 18 36 20 35 3z m2841
-858 c0 -5 -5 -10 -11 -10 -5 0 -7 5 -4 10 3 6 8 10 11 10 2 0 4 -4 4 -10z
m963 -215 c3 -40 -20 -43 -26 -3 -2 18 -2 37 0 41 9 14 24 -8 26 -38z m57 -76
c0 -21 -4 -39 -9 -39 -11 0 -24 67 -16 80 12 20 25 -2 25 -41z"/>
<path d="M910 7625 c0 -68 2 -75 20 -75 14 0 20 7 20 23 0 23 16 55 23 47 3
-3 12 -20 21 -37 10 -21 24 -33 37 -33 19 0 19 2 -8 49 l-27 50 24 25 c21 23
22 26 5 26 -10 0 -31 -15 -46 -32 l-28 -33 -1 33 c0 25 -4 32 -20 32 -18 0
-20 -7 -20 -75z"/>
<path d="M5020 6979 c1 -66 22 -132 86 -264 51 -105 64 -157 34 -130 -9 8 -21
15 -27 15 -17 0 -81 76 -133 158 -78 123 -101 154 -107 149 -3 -3 18 -49 46
-102 67 -126 67 -137 -1 -30 -7 11 -16 22 -19 25 -3 3 -16 26 -28 53 -13 26
-27 47 -31 47 -12 0 20 -76 42 -100 10 -11 17 -24 14 -28 -3 -5 17 -37 44 -73
27 -35 49 -69 50 -75 0 -6 7 -17 15 -24 9 -7 30 -31 48 -54 l32 -41 -30 22
c-16 12 -59 48 -95 80 -36 32 -88 76 -115 98 -28 22 -52 42 -55 45 -3 3 -16
14 -30 25 l-24 20 19 -30 c10 -16 27 -38 38 -47 11 -10 17 -18 12 -18 -8 0 64
-78 104 -114 14 -11 40 -37 58 -56 30 -32 31 -35 12 -38 -11 -2 -25 1 -32 6
-7 6 -29 19 -50 31 -21 12 -50 29 -65 39 l-27 17 19 -30 c11 -16 29 -37 40
-47 20 -17 10 -17 -214 -18 -129 0 -251 -4 -269 -10 -46 -13 -89 -56 -101
-100 -14 -50 -14 -1039 0 -1089 5 -21 19 -46 31 -57 11 -10 27 -33 34 -50 7
-17 30 -44 51 -60 l37 -29 1398 -3 1398 -2 19 -43 c40 -91 44 -129 22 -228
-13 -60 -34 -117 -62 -170 l-43 -79 -236 0 c-287 0 -299 2 -300 44 -1 18 -5 6
-10 -29 -17 -114 -17 -125 -1 -134 19 -11 12 -148 -9 -163 -8 -5 -63 -8 -124
-6 -60 2 -129 2 -152 -1 -42 -6 -42 -6 -28 -31 33 -58 47 -95 43 -122 -3 -18
0 -28 8 -28 17 0 36 -37 60 -112 10 -32 21 -58 26 -58 10 0 194 29 229 36 26
5 26 6 16 61 -9 55 -6 64 26 76 18 6 -7 37 -29 37 -22 0 -24 4 -24 44 0 35 4
45 20 49 27 7 28 57 1 57 -16 0 -19 11 -26 100 -3 55 -11 100 -16 100 -5 0 -9
6 -9 14 0 12 37 15 230 16 l231 1 -122 -238 c-147 -287 -143 -281 -171 -286
-13 -2 0 -2 27 1 49 4 53 7 150 109 60 63 112 128 128 162 16 31 54 82 85 113
49 51 61 71 104 185 45 117 51 143 69 303 11 96 22 185 25 197 l4 23 1474 2
c1472 3 1475 3 1502 24 15 11 37 33 48 48 21 27 21 40 24 577 2 529 2 552 -17
595 -13 28 -32 51 -52 62 -18 9 -47 30 -65 45 -18 15 -48 32 -66 38 -20 5
-958 9 -2446 9 -2289 0 -2413 1 -2419 18 -3 9 -30 51 -58 92 -29 42 -64 99
-79 128 -14 29 -29 52 -31 52 -3 0 4 -19 15 -42 l21 -43 -23 29 c-35 44 -85
124 -118 191 -28 57 -40 64 -21 13 16 -45 22 -80 12 -74 -5 4 -22 43 -36 89
-15 45 -29 84 -31 86 -2 2 -4 -20 -4 -50z m3396 -805 c19 -15 19 -15 -1 -6
-11 5 -27 12 -35 15 -13 5 -13 6 1 6 8 1 24 -6 35 -15z m-2059 -30 c6 -16 -15
-37 -29 -28 -4 3 -8 14 -8 25 0 23 28 26 37 3z m1223 -24 c0 -38 1 -39 25 -28
19 9 29 8 50 -6 22 -15 25 -23 25 -81 0 -63 -1 -65 -25 -65 -24 0 -25 3 -25
54 0 30 -5 58 -10 61 -22 13 -40 -17 -40 -66 0 -46 -2 -49 -25 -49 l-25 0 0
110 0 110 25 0 c22 0 25 -4 25 -40z m820 25 c19 -22 8 -25 -12 -3 -10 10 -14
18 -9 18 5 0 14 -7 21 -15z m-8 -42 c48 -47 48 -47 48 -20 0 31 27 48 41 26
12 -20 11 -120 -2 -158 -12 -35 -35 -51 -74 -51 -37 0 -168 117 -161 144 3 11
1 28 -5 38 -8 14 -6 20 10 26 11 4 20 12 21 17 0 6 10 10 20 9 11 0 20 3 20 8
0 22 39 3 82 -39z m45 25 c-3 -8 -6 -5 -6 6 -1 11 2 17 5 13 3 -3 4 -12 1 -19z
m-2297 -28 l0 -40 50 0 50 0 0 40 c0 29 4 40 15 40 12 0 15 -18 15 -100 0 -82
-3 -100 -15 -100 -11 0 -15 12 -15 45 l0 45 -50 0 -50 0 0 -45 c0 -33 -4 -45
-15 -45 -12 0 -15 18 -15 100 0 82 3 100 15 100 11 0 15 -11 15 -40z m480 -60
c0 -82 -3 -100 -15 -100 -12 0 -15 18 -15 100 0 82 3 100 15 100 12 0 15 -18
15 -100z m760 58 l0 -42 36 42 c27 32 43 42 66 42 l30 0 -36 -42 c-32 -37 -35
-44 -23 -62 7 -12 23 -38 36 -58 l23 -38 -29 0 c-22 0 -34 8 -53 40 -18 30
-27 36 -37 28 -7 -6 -13 -23 -13 -39 0 -24 -4 -29 -25 -29 l-25 0 0 100 0 100
25 0 c23 0 25 -4 25 -42z m-512 -14 c18 -12 22 -25 22 -64 0 -36 5 -52 18 -59
14 -8 15 -12 4 -23 -9 -9 -17 -10 -30 -1 -12 7 -24 8 -36 1 -24 -13 -63 -2
-76 22 -17 32 4 59 51 66 29 5 39 11 37 23 -4 22 -36 26 -58 6 -14 -12 -20
-13 -26 -4 -9 14 30 49 55 49 9 0 27 -7 39 -16z m181 6 c12 -6 29 -5 49 2 25
10 34 9 56 -5 24 -16 26 -24 26 -82 0 -51 -3 -65 -15 -65 -12 0 -15 13 -15 59
0 64 -14 80 -51 61 -15 -9 -19 -22 -19 -65 0 -42 -3 -55 -15 -55 -11 0 -15 13
-15 54 0 60 -19 88 -48 69 -12 -7 -18 -27 -20 -67 -3 -48 -6 -56 -22 -56 -18
0 -20 7 -20 76 0 70 2 76 19 71 10 -2 25 -1 32 4 18 11 36 11 58 -1z m804 -21
c22 -28 22 -81 -2 -110 -14 -18 -29 -24 -61 -24 -32 0 -47 6 -61 24 -34 41
-21 113 24 131 32 14 79 3 100 -21z m164 10 c7 -7 13 -32 13 -60 0 -27 5 -49
10 -49 15 0 12 -30 -4 -36 -8 -3 -23 -1 -32 4 -12 7 -26 6 -41 -1 -33 -15 -73
5 -73 37 0 29 17 44 58 52 18 4 32 11 32 16 0 15 -31 21 -43 9 -18 -18 -49
-14 -45 6 7 38 88 52 125 22z m-1667 -64 c0 -60 -3 -75 -15 -75 -12 0 -15 15
-15 75 0 60 3 75 15 75 12 0 15 -15 15 -75z m1913 -85 c16 -6 18 -9 5 -9 -17
-1 -58 44 -58 63 1 6 8 -2 16 -17 8 -15 25 -32 37 -37z m2 40 c10 -11 13 -20
7 -20 -6 0 -16 9 -22 20 -6 11 -9 20 -7 20 2 0 12 -9 22 -20z m-1827 -26 c3
-32 -19 -61 -38 -49 -8 5 -7 11 1 21 9 11 9 18 1 26 -14 14 -3 40 17 36 10 -2
17 -15 19 -34z m-908 -208 c0 -8 -10 -16 -22 -18 -13 -2 -24 -11 -26 -20 -3
-15 4 -18 37 -18 33 0 40 4 43 22 5 32 28 35 28 4 0 -21 5 -26 25 -26 14 0 25
-4 25 -10 0 -5 -11 -10 -26 -10 -24 0 -25 -2 -22 -52 3 -48 5 -53 26 -50 31 5
29 -26 -3 -34 -40 -10 -55 11 -55 77 l0 59 -40 0 -40 0 0 -65 c0 -51 -3 -65
-15 -65 -12 0 -15 14 -15 65 0 51 -3 65 -15 65 -8 0 -15 5 -15 10 0 6 7 10 15
10 9 0 15 9 15 23 0 13 5 28 12 35 17 17 68 15 68 -2z m1523 0 c8 -19 -15 -37
-32 -26 -17 10 -7 40 13 40 7 0 16 -6 19 -14z m891 -1 c-4 -8 -15 -15 -25 -15
-12 0 -19 -7 -19 -20 0 -15 7 -20 25 -20 14 0 25 -4 25 -10 0 -5 -11 -10 -25
-10 -24 0 -25 -2 -25 -65 0 -58 -2 -65 -20 -65 -18 0 -20 7 -20 65 0 51 -3 65
-15 65 -8 0 -15 5 -15 10 0 6 7 10 15 10 8 0 15 7 15 16 0 34 20 54 55 54 26
0 33 -3 29 -15z m941 5 c4 -6 1 -18 -6 -26 -11 -13 -14 -13 -27 0 -8 8 -11 19
-8 25 9 14 33 14 41 1z m-4010 -44 c8 -18 26 -63 39 -100 24 -62 24 -66 7 -66
-12 0 -21 10 -25 25 -6 22 -12 25 -50 25 -36 0 -45 -4 -54 -25 -13 -29 -48
-36 -37 -7 4 9 21 54 38 100 36 93 58 106 82 48z m330 14 c14 -16 16 -23 7
-32 -9 -9 -15 -8 -25 6 -18 25 -82 19 -82 -8 0 -15 12 -23 50 -32 73 -19 92
-51 56 -95 -27 -33 -101 -34 -133 -2 -16 17 -19 26 -11 34 8 8 19 5 40 -11 35
-25 83 -19 83 10 0 13 -16 23 -57 36 -53 17 -58 22 -61 50 -4 43 19 64 72 64
30 0 48 -6 61 -20z m1425 5 c0 -12 -13 -15 -55 -15 -52 0 -55 -1 -55 -25 0
-22 4 -25 40 -25 29 0 40 -4 40 -15 0 -11 -11 -15 -40 -15 -38 0 -40 -2 -40
-30 0 -30 1 -30 55 -30 42 0 55 -3 55 -15 0 -12 -15 -15 -75 -15 l-75 0 0 100
0 100 75 0 c60 0 75 -3 75 -15z m2069 -63 c15 -39 28 -72 31 -72 3 0 17 32 30
71 23 65 42 91 57 76 3 -3 -11 -49 -32 -102 -49 -126 -60 -126 -109 0 -20 52
-36 97 -36 101 0 3 8 4 17 2 11 -2 26 -29 42 -76z m472 28 c16 0 29 -4 29 -10
0 -5 -14 -10 -31 -10 l-30 0 3 -52 c3 -48 5 -53 27 -53 13 0 26 -5 28 -12 6
-17 -41 -27 -66 -13 -18 9 -21 20 -21 70 0 47 -3 60 -15 60 -8 0 -15 5 -15 10
0 6 7 10 15 10 8 0 15 9 15 19 0 28 24 32 28 4 3 -18 9 -23 33 -23z m140 -22
l44 -73 3 73 c2 55 6 72 17 72 12 0 15 -19 15 -100 0 -91 -2 -100 -19 -100
-12 0 -34 24 -65 73 l-45 72 -1 -72 c0 -58 -3 -73 -15 -73 -12 0 -15 18 -15
100 0 91 2 100 19 100 13 0 33 -24 62 -72z m-2313 35 c2 -7 -4 -13 -13 -13
-13 0 -15 -6 -10 -31 9 -41 -16 -69 -62 -69 -54 0 -35 -24 23 -30 44 -5 49 -8
52 -32 6 -50 -76 -77 -126 -42 -21 14 -22 21 -16 58 4 22 7 60 6 83 -2 35 1
45 23 59 14 9 34 14 45 11 10 -3 25 2 31 9 14 17 40 15 47 -3z m-1623 -26 c59
-51 15 -158 -58 -143 -41 8 -55 22 -62 60 -16 83 59 136 120 83z m645 3 c15
-15 20 -33 20 -69 0 -30 5 -51 13 -54 9 -3 9 -7 0 -17 -8 -8 -16 -9 -29 -2
-12 7 -25 6 -41 -1 -16 -7 -30 -7 -48 1 -50 23 -18 92 43 92 17 0 23 5 20 17
-4 24 -32 28 -52 7 -14 -13 -20 -14 -29 -5 -9 10 -7 17 12 32 30 25 66 24 91
-1z m160 -1 c0 -11 -4 -17 -10 -14 -5 3 -19 1 -30 -5 -16 -9 -20 -21 -20 -65
0 -42 -3 -55 -15 -55 -12 0 -15 15 -15 74 0 74 0 75 28 79 57 9 62 7 62 -14z
m135 -4 c14 -13 25 -36 25 -50 0 -24 -3 -25 -56 -25 -57 0 -67 -11 -31 -34 12
-8 22 -7 37 2 26 16 40 15 40 -3 0 -19 -47 -38 -76 -31 -92 23 -75 162 19 165
10 1 29 -10 42 -24z m475 5 c26 -26 30 -140 5 -140 -11 0 -15 12 -15 46 0 75
-28 105 -64 68 -10 -10 -16 -33 -16 -65 0 -37 -4 -49 -15 -49 -12 0 -15 15
-15 74 l0 75 33 4 c17 2 40 5 50 5 9 1 26 -7 37 -18z m418 4 c19 -13 22 -24
22 -80 0 -50 -3 -64 -15 -64 -11 0 -15 13 -15 54 0 60 -19 88 -48 69 -12 -7
-18 -27 -20 -67 -3 -48 -6 -56 -22 -56 -18 0 -20 7 -20 76 0 70 2 76 19 71 10
-2 25 -1 32 4 21 13 42 11 67 -7z m187 -9 c14 -13 25 -36 25 -50 0 -24 -3 -25
-56 -25 -57 0 -67 -11 -31 -34 12 -8 22 -7 37 2 26 16 40 15 40 -2 0 -22 -54
-40 -87 -29 -60 20 -69 122 -13 150 37 19 58 16 85 -12z m170 0 c14 -13 25
-36 25 -50 0 -24 -3 -25 -56 -25 -57 0 -67 -11 -31 -34 12 -8 22 -7 37 2 26
16 40 15 40 -3 0 -19 -47 -38 -76 -31 -92 23 -75 162 19 165 10 1 29 -10 42
-24z m155 4 c0 -11 -4 -17 -10 -14 -5 3 -19 1 -30 -5 -16 -9 -20 -21 -20 -65
0 -42 -3 -55 -15 -55 -12 0 -15 15 -15 74 0 74 0 75 28 79 57 9 62 7 62 -14z
m340 1 c0 -12 -5 -17 -14 -14 -25 10 -46 -25 -46 -77 0 -37 -4 -49 -15 -49
-12 0 -15 15 -15 74 0 74 0 75 28 79 56 8 62 7 62 -13z m153 -11 c38 -47 11
-123 -48 -135 -48 -9 -85 26 -85 81 0 36 5 48 27 65 33 26 79 21 106 -11z
m162 17 c16 -12 22 -12 41 1 27 17 71 8 84 -17 6 -10 10 -44 10 -74 0 -49 -2
-56 -20 -56 -16 0 -19 8 -22 62 -2 49 -7 64 -19 66 -29 5 -49 -26 -49 -79 0
-37 -4 -49 -15 -49 -12 0 -15 13 -15 59 0 64 -14 80 -51 61 -15 -9 -19 -22
-19 -65 0 -42 -3 -55 -15 -55 -12 0 -15 15 -15 74 0 74 0 75 28 79 51 8 58 7
77 -7z m665 -6 c11 -11 20 -33 20 -50 0 -30 -1 -30 -55 -30 -44 0 -53 -3 -49
-15 8 -21 38 -27 68 -14 35 16 47 2 17 -22 -51 -41 -121 -3 -121 66 0 69 75
110 120 65z m498 4 c18 -12 22 -25 22 -70 0 -30 5 -54 10 -54 6 0 10 -7 10
-15 0 -16 -25 -21 -35 -6 -3 6 -17 6 -35 -1 -24 -8 -36 -7 -55 6 -44 29 -25
73 35 82 43 7 53 28 19 39 -12 4 -27 1 -37 -8 -21 -18 -43 -12 -35 9 12 32 67
42 101 18z m181 6 c12 -6 29 -5 49 2 25 10 34 9 56 -5 24 -16 26 -24 26 -82 0
-51 -3 -65 -15 -65 -11 0 -15 13 -15 54 0 60 -19 88 -48 69 -12 -7 -18 -27
-20 -67 -2 -41 -7 -56 -17 -56 -11 0 -15 12 -15 46 0 51 -14 84 -35 84 -23 0
-45 -42 -45 -87 0 -32 -4 -43 -15 -43 -12 0 -15 15 -15 76 0 70 2 76 19 71 10
-2 25 -1 32 4 18 11 36 11 58 -1z m-4019 -50 c7 -27 15 -48 20 -45 4 2 13 25
20 50 18 64 43 61 66 -7 l18 -53 15 53 c12 38 21 52 34 52 20 0 20 3 -13 -95
-12 -35 -23 -51 -37 -53 -16 -2 -23 6 -33 42 -7 26 -16 46 -20 46 -4 0 -13
-20 -20 -45 -18 -64 -43 -61 -68 8 -35 94 -35 97 -14 97 16 0 23 -11 32 -50z
m1350 -25 c0 -60 -3 -75 -15 -75 -12 0 -15 15 -15 75 0 60 3 75 15 75 12 0 15
-15 15 -75z m1830 0 c0 -60 -3 -75 -15 -75 -12 0 -15 15 -15 75 0 60 3 75 15
75 12 0 15 -15 15 -75z m-2344 -1378 c1 -1 6 -21 11 -44 11 -43 11 -43 -17
-43 -34 0 -37 4 -46 60 l-7 43 29 -7 c16 -4 29 -8 30 -9z m92 -34 c-4 -66 -28
-70 -28 -4 0 39 4 51 16 51 12 0 14 -10 12 -47z m-184 25 c16 -52 15 -66 -4
-71 -16 -4 -21 1 -26 21 -3 15 -8 35 -11 45 -3 12 2 17 17 17 11 0 22 -6 24
-12z m-71 -15 c2 -10 8 -27 12 -38 12 -30 -9 -6 -23 28 -6 15 -8 27 -3 27 5 0
11 -8 14 -17z"/>
<path d="M6804 5989 c-3 -6 -1 -16 5 -22 13 -13 42 0 49 21 5 15 -44 16 -54 1z"/>
<path d="M7767 6053 c-14 -13 -7 -74 8 -79 21 -8 45 14 45 40 0 34 -34 59 -53
39z"/>
<path d="M7950 5990 c-8 -5 -11 -12 -8 -16 10 -9 38 3 38 16 0 12 -10 13 -30
0z"/>
<path d="M4832 5661 c-17 -47 -15 -51 13 -51 28 0 28 1 11 50 l-13 34 -11 -33z"/>
<path d="M6884 5646 c-9 -22 4 -36 32 -36 21 0 25 4 22 23 -4 26 -45 37 -54
13z"/>
<path d="M6873 5508 c2 -8 20 -13 42 -13 22 0 40 5 43 13 2 8 -10 12 -43 12
-33 0 -45 -4 -42 -12z"/>
<path d="M5296 5638 c-21 -29 -20 -41 3 -69 16 -21 22 -22 45 -11 47 21 30
102 -23 102 -5 0 -17 -10 -25 -22z"/>
<path d="M5950 5580 c-11 -7 -12 -12 -3 -21 14 -14 53 -2 53 17 0 16 -28 18
-50 4z"/>
<path d="M6240 5645 c-18 -21 -9 -27 36 -23 36 3 37 4 20 21 -21 21 -40 22
-56 2z"/>
<path d="M7322 5648 c-20 -20 -14 -28 23 -28 37 0 49 22 19 34 -22 8 -28 8
-42 -6z"/>
<path d="M7490 5645 c-18 -21 -9 -27 36 -23 36 3 37 4 20 21 -21 21 -40 22
-56 2z"/>
<path d="M8126 5644 c-30 -30 -10 -94 29 -94 17 0 45 38 45 61 0 18 -30 49
-48 49 -6 0 -18 -7 -26 -16z"/>
<path d="M8964 5643 c-17 -17 -16 -18 20 -21 45 -4 54 2 36 23 -16 20 -35 19
-56 -2z"/>
<path d="M9474 5579 c-3 -6 -1 -16 5 -22 13 -13 42 0 49 21 5 15 -44 16 -54 1z"/>
<path d="M10424 6960 c-26 -10 -40 -30 -22 -30 30 0 58 13 58 26 0 16 -6 16
-36 4z"/>
<path d="M10215 6800 c-3 -5 -2 -10 4 -10 5 0 13 5 16 10 3 6 2 10 -4 10 -5 0
-13 -4 -16 -10z"/>
<path d="M10075 6770 c-25 -11 1 -11 35 0 20 6 21 8 5 8 -11 0 -29 -3 -40 -8z"/>
<path d="M3957 5830 c9 -22 25 -49 36 -61 15 -16 17 -23 7 -29 -9 -6 -7 -10 9
-15 20 -6 23 -10 25 -37 1 -19 52 -38 100 -38 34 0 51 -7 84 -36 23 -19 42
-31 42 -27 0 13 -44 53 -58 53 -18 0 -33 46 -30 89 3 31 0 36 -19 39 -12 2
-25 12 -28 23 -4 11 -9 18 -12 15 -3 -3 1 -20 9 -38 26 -57 30 -85 12 -92 -25
-10 -58 17 -103 85 -22 34 -41 63 -41 65 0 7 53 -8 81 -22 24 -12 27 -11 32 6
4 16 0 20 -18 20 -12 0 -28 7 -35 15 -7 9 -21 13 -34 9 -12 -3 -34 -1 -48 5
l-26 10 15 -39z"/>
<path d="M4210 5582 c0 -12 19 -26 26 -19 2 2 -2 10 -11 17 -9 8 -15 8 -15 2z"/>
<path d="M8075 5070 c-3 -5 -1 -10 4 -10 6 0 11 5 11 10 0 6 -2 10 -4 10 -3 0
-8 -4 -11 -10z"/>
<path d="M8092 4918 c2 -19 10 -23 43 -24 32 -1 34 -1 8 3 -24 3 -33 9 -33 24
0 10 -5 19 -11 19 -6 0 -9 -10 -7 -22z"/>
<path d="M6633 4685 c0 -22 2 -30 4 -17 2 12 2 30 0 40 -3 9 -5 -1 -4 -23z"/>
<path d="M8111 4638 c-1 -23 3 -28 22 -27 15 1 17 3 5 6 -9 2 -19 14 -21 26
-4 18 -5 17 -6 -5z"/>
<path d="M8168 4553 c12 -2 32 -2 45 0 12 2 2 4 -23 4 -25 0 -35 -2 -22 -4z"/>
<path d="M9647 4273 c-15 -15 -5 -23 27 -23 40 0 66 8 66 21 0 10 -83 12 -93
2z"/>
<path d="M10152 4248 c-15 -20 -24 -58 -13 -58 5 0 17 -7 25 -16 12 -12 16
-38 16 -117 l1 -102 39 -27 40 -28 0 130 c0 107 -3 132 -15 136 -8 4 -15 17
-15 30 0 14 -6 24 -14 24 -7 0 -16 9 -19 20 -6 22 -29 26 -45 8z"/>
<path d="M10104 4156 c-3 -8 2 -25 10 -38 9 -13 17 -50 18 -83 2 -38 8 -60 16
-63 19 -6 14 145 -6 176 -16 25 -30 28 -38 8z"/>
<path d="M9400 4126 c0 -14 5 -26 11 -26 6 0 9 -6 6 -14 -7 -18 50 -59 71 -51
15 6 15 8 -3 21 -11 9 -27 19 -35 24 -8 5 -12 12 -8 15 4 4 28 -9 54 -29 l47
-36 239 1 c131 1 238 5 238 10 0 5 5 9 10 9 6 0 10 -6 10 -13 0 -11 58 -47 75
-47 3 0 5 11 5 25 0 14 -4 25 -9 25 -12 0 -24 40 -22 73 l2 27 -308 0 c-169 0
-325 3 -345 6 -36 6 -38 5 -38 -20z m580 -46 c0 -5 -2 -10 -4 -10 -3 0 -8 5
-11 10 -3 6 -1 10 4 10 6 0 11 -4 11 -10z"/>
<path d="M5640 4080 c-8 -5 -10 -10 -5 -10 6 0 17 5 25 10 8 5 11 10 5 10 -5
0 -17 -5 -25 -10z"/>
<path d="M5565 4059 c-9 -14 -2 -20 14 -10 8 6 9 11 3 15 -6 3 -14 1 -17 -5z"/>
<path d="M5261 3902 c-1 -80 3 -121 9 -117 12 7 12 178 0 215 -5 16 -8 -21 -9
-98z"/>
<path d="M8495 3979 l-40 -41 29 4 c24 2 32 10 42 41 7 20 12 37 11 37 -2 0
-21 -18 -42 -41z"/>
<path d="M6728 3983 c6 -2 18 -2 25 0 6 3 1 5 -13 5 -14 0 -19 -2 -12 -5z"/>
<path d="M5406 3938 c8 -15 19 -30 25 -34 21 -13 79 -22 84 -13 3 4 17 4 30
-1 14 -5 71 -7 127 -4 94 5 105 7 123 30 12 13 27 24 35 24 10 0 7 -7 -9 -19
-13 -10 -19 -21 -14 -24 12 -8 38 19 47 48 6 20 1 20 -228 20 l-234 0 14 -27z
m304 -14 c0 -8 -5 -12 -10 -9 -6 4 -8 11 -5 16 9 14 15 11 15 -7z m-250 -4 c8
-5 12 -11 10 -14 -3 -2 -14 2 -24 10 -22 15 -10 19 14 4z"/>
<path d="M5333 3895 c0 -33 2 -45 4 -27 2 18 2 45 0 60 -2 15 -4 0 -4 -33z"/>
<path d="M7400 3931 c-70 -13 -158 -48 -219 -87 -74 -48 -115 -118 -132 -219
l-12 -75 -53 0 c-39 0 -54 4 -54 14 0 8 -14 16 -33 20 l-33 6 4 64 4 64 -78 6
c-95 8 -293 25 -386 35 -37 4 -70 10 -74 13 -14 15 -17 98 -3 115 8 9 -15 -3
-51 -27 -36 -24 -70 -51 -77 -59 -10 -14 -13 -12 -24 12 -20 45 -64 25 -52
-24 6 -24 6 -24 -15 -5 -26 23 -29 11 -5 -16 21 -24 9 -48 -31 -61 -37 -12
-43 -3 -22 39 15 33 15 36 1 30 -9 -3 -20 -6 -25 -6 -4 0 -10 -9 -13 -20 -3
-11 -9 -20 -14 -19 -24 4 -35 -2 -29 -18 6 -17 5 -17 -7 -1 -19 23 -137 14
-137 -11 0 -10 -4 -21 -9 -26 -6 -6 -14 -46 -20 -91 -8 -65 -7 -103 7 -196
l18 -115 -69 -44 -69 -44 5 -63 c3 -35 7 -65 9 -68 3 -2 29 3 58 12 l54 16 25
-31 c15 -17 32 -31 39 -31 16 0 16 -1 -14 69 -24 55 -26 66 -18 128 7 50 5 99
-7 181 -15 109 -15 125 7 270 6 40 24 42 24 2 0 -16 4 -30 9 -30 4 0 6 -12 3
-27 -5 -25 -3 -26 11 -15 9 8 17 23 19 35 2 13 19 31 43 44 l40 22 17 -37 c21
-48 23 -102 3 -102 -18 0 -65 21 -65 30 0 4 -7 7 -15 7 -8 0 -15 -4 -15 -8 0
-4 -3 -14 -6 -22 -4 -12 0 -14 15 -10 15 4 21 1 21 -11 0 -9 4 -16 9 -16 8 0
13 -28 12 -83 0 -15 4 -25 9 -22 6 4 10 22 10 41 0 19 5 34 11 34 7 0 10 -14
7 -35 -3 -24 0 -35 9 -35 7 0 13 -7 13 -15 0 -32 19 -13 23 23 l3 37 9 -33 c5
-21 11 -29 15 -21 4 6 4 25 -1 42 -11 39 -5 45 22 21 13 -12 19 -27 16 -42 -3
-17 -1 -22 10 -18 8 3 17 6 19 6 2 0 4 6 4 14 0 8 4 16 9 18 17 6 -57 96 -81
100 -19 2 -24 10 -26 42 -3 31 0 38 12 33 8 -3 26 3 40 14 34 26 68 21 77 -11
4 -14 7 -64 8 -112 1 -49 5 -88 9 -88 7 0 7 57 -1 173 -1 20 1 37 4 37 4 0 14
3 22 6 10 3 17 -4 21 -22 4 -14 14 -33 21 -41 11 -10 15 -37 15 -89 0 -44 4
-74 10 -74 7 0 8 23 4 65 l-7 65 28 0 28 0 -6 -65 c-4 -39 -2 -65 3 -65 6 0
10 27 10 60 0 64 1 66 31 50 18 -10 19 -23 19 -165 0 -85 -3 -155 -7 -155 -5
0 -14 4 -22 9 -11 7 -12 13 -3 23 7 9 8 19 2 28 -6 8 -10 11 -10 6 0 -5 -6 -3
-14 3 -11 9 -15 9 -18 0 -3 -9 -49 -12 -170 -11 l-166 2 5 -43 c3 -23 6 -43 7
-44 1 -1 85 -3 188 -4 102 -1 191 -5 198 -9 9 -6 12 -34 8 -107 -3 -64 -1
-103 6 -111 39 -42 52 -52 70 -52 12 0 30 -7 40 -15 11 -8 30 -15 43 -15 13 0
23 -4 23 -9 0 -5 9 -12 20 -15 66 -19 60 -27 60 83 0 89 -2 102 -19 113 -16
10 -18 15 -8 27 10 12 9 13 -8 7 -11 -5 -30 -8 -43 -7 -13 0 -20 -3 -17 -9 3
-6 1 -10 -4 -10 -6 0 -11 7 -11 15 0 8 -12 21 -27 29 -36 19 -26 20 26 1 l41
-14 0 29 c0 28 -4 31 -57 47 l-58 17 3 53 c4 60 22 73 22 16 1 -35 18 -73 34
-73 3 0 7 24 8 53 1 45 2 47 5 12 4 -43 21 -85 35 -85 13 0 8 192 -6 233 -15
40 -43 77 -58 77 -5 0 -20 -11 -33 -25 -24 -23 -25 -30 -25 -140 0 -64 -4
-115 -9 -115 -5 0 -12 -8 -14 -17 -3 -10 -5 27 -6 83 0 56 -4 136 -8 179 l-6
78 24 -7 c13 -4 35 -9 49 -10 14 -1 35 -8 47 -14 29 -16 43 -15 43 2 0 8 -36
34 -80 58 -44 24 -80 49 -80 56 0 14 10 12 78 -11 19 -7 32 -18 32 -28 0 -18
139 -109 166 -109 31 0 11 28 -43 60 -90 53 -92 55 -84 69 7 10 16 9 46 -3 20
-9 50 -16 66 -16 19 0 30 -6 34 -19 7 -22 121 -111 142 -111 29 0 10 33 -46
76 -38 29 -58 51 -54 60 4 12 8 12 20 2 9 -7 36 -15 61 -18 45 -5 47 -6 54
-45 11 -60 22 -406 14 -449 l-7 -38 -42 7 c-23 4 -51 9 -62 12 -16 4 -18 3 -7
-8 25 -27 11 -29 -16 -2 -19 19 -38 28 -62 29 l-35 1 4 -95 c4 -122 27 -165
65 -126 9 9 24 17 34 18 13 2 18 16 23 67 l6 64 1 -71 c2 -64 5 -73 27 -88 14
-9 25 -23 25 -31 0 -9 11 -20 24 -26 13 -6 26 -19 29 -29 2 -9 16 -19 31 -22
l26 -5 2 266 c3 362 3 347 -6 431 l-8 75 35 -34 c58 -55 93 -23 41 38 l-26 31
35 0 c34 0 34 0 46 63 7 34 14 71 16 82 2 11 17 35 32 53 l28 34 35 -66 c21
-40 41 -66 51 -66 34 0 29 33 -16 116 -25 46 -41 84 -36 84 5 0 11 -5 13 -12
3 -7 26 0 69 20 l64 31 17 -71 c19 -78 40 -110 60 -90 9 9 9 27 0 82 -7 39
-12 77 -12 84 0 17 96 31 141 21 30 -7 31 -9 24 -44 -15 -85 -17 -119 -5 -141
17 -32 34 -11 54 72 20 82 20 98 2 98 -16 0 -42 28 -33 36 10 10 47 -7 47 -21
0 -7 29 -24 65 -36 l64 -24 -39 -72 c-43 -77 -48 -104 -26 -122 12 -10 18 -8
29 11 100 159 94 156 151 82 29 -38 34 -54 40 -124 7 -76 9 -80 31 -80 l24 0
-5 -177 c-14 -604 -14 -606 4 -620 51 -40 48 -53 48 245 1 152 4 338 8 412 l8
136 50 18 c54 19 73 17 34 -4 -17 -9 -27 -25 -31 -52 -4 -22 -5 -42 -2 -45 3
-3 37 17 75 43 57 39 67 50 56 59 -8 6 -16 20 -17 33 -1 19 -7 22 -45 22 -35
0 -45 -4 -49 -20 -4 -16 -14 -20 -53 -20 -53 0 -52 -2 -66 95 -15 108 -118
211 -259 259 -87 29 -247 42 -335 27z m0 -40 c0 -12 -21 -19 -37 -13 -22 8
-14 22 12 22 14 0 25 -4 25 -9z m440 -72 c0 -11 -26 -18 -37 -11 -12 9 -23 38
-16 46 6 6 52 -25 53 -35z m-1813 -131 c-3 -8 -6 -5 -6 6 -1 11 2 17 5 13 3
-3 4 -12 1 -19z m265 -60 c-9 -9 -15 -9 -24 0 -9 9 -7 12 12 12 19 0 21 -3 12
-12z m92 -16 c2 -4 1 -14 -3 -20 -6 -10 -13 -10 -34 -1 -15 7 -27 16 -27 21 0
10 57 11 64 0z m168 -252 c2 -42 1 -48 -9 -33 -15 19 -17 83 -4 83 5 0 11 -23
13 -50z m-52 -20 c0 -5 -4 -10 -10 -10 -5 0 -10 5 -10 10 0 6 5 10 10 10 6 0
10 -4 10 -10z"/>
<path d="M9197 3892 c-19 -21 -24 -108 -7 -114 15 -5 -15 -73 -57 -130 -29
-41 -32 -48 -16 -48 10 0 74 -3 142 -7 l124 -6 -7 42 c-4 28 -3 40 4 36 5 -3
10 3 10 14 0 11 -10 27 -22 34 -94 57 -93 57 -73 57 12 0 30 -7 40 -15 88 -66
144 -105 154 -105 26 0 7 39 -34 70 -25 19 -45 35 -45 37 0 11 33 0 49 -16 11
-11 35 -21 53 -23 l33 -3 7 -110 c7 -98 0 -284 -18 -517 -5 -67 -9 -78 -24
-78 -28 0 -31 13 -14 62 11 33 12 52 5 71 -19 48 -42 29 -67 -52 -8 -28 -21
-51 -28 -51 -19 0 -76 21 -76 28 0 3 8 30 17 60 16 51 16 55 0 67 -9 6 -15 14
-13 16 3 2 7 29 11 59 8 69 34 163 49 172 6 4 21 8 32 8 12 0 26 6 32 13 8 9
-46 12 -266 12 -254 1 -286 3 -382 24 -58 13 -133 35 -168 48 -35 13 -68 21
-73 17 -6 -3 -15 8 -22 26 -11 28 -15 31 -41 26 -16 -3 -41 -6 -57 -6 -28 0
-42 -24 -19 -32 7 -2 5 -10 -3 -22 -14 -19 -15 -19 -27 3 -10 19 -9 25 1 32
17 11 -33 12 -119 3 -54 -6 -59 -8 -46 -22 11 -10 27 -13 55 -9 l40 5 -45 -29
c-38 -24 -46 -34 -46 -59 0 -37 12 -38 65 -5 47 29 55 30 55 10 0 -22 13 -19
106 26 l84 41 61 -24 61 -23 -6 -110 c-4 -60 -9 -131 -13 -157 -4 -39 -3 -48
10 -48 22 0 24 13 32 163 4 75 11 135 15 132 37 -23 329 -64 458 -65 48 0 62
-3 62 -15 0 -8 3 -14 8 -14 18 3 32 -2 32 -11 0 -6 -35 -9 -87 -8 l-88 1 65 7
65 6 -88 4 c-48 3 -92 4 -97 2 -18 -6 -11 -22 9 -22 11 0 22 -4 26 -9 3 -5 46
-7 99 -4 55 3 96 2 99 -4 3 -5 0 -20 -6 -34 -7 -13 -26 -66 -42 -118 l-29 -93
-61 7 c-33 3 -73 9 -90 12 -29 5 -29 5 -12 -13 12 -13 36 -19 87 -22 48 -3 69
-8 66 -16 -2 -6 -16 -50 -32 -98 -15 -49 -31 -88 -36 -88 -14 0 -20 27 -10 45
24 43 -10 83 -78 90 -14 2 -29 3 -34 4 -4 1 -5 9 0 19 4 9 8 34 9 54 1 29 -3
38 -22 47 -20 9 -22 14 -13 30 28 54 -3 101 -70 101 -19 1 -46 7 -60 15 -54
31 -95 5 -84 -54 5 -22 16 -33 46 -47 54 -24 55 -32 2 -20 -24 6 -44 16 -44
23 0 25 -32 12 -43 -17 -13 -34 -19 -35 -75 -16 l-40 14 -6 -30 c-3 -17 -6
-56 -6 -87 0 -35 -6 -65 -16 -79 -8 -12 -17 -30 -19 -40 -16 -68 -16 -68 -6
-47 5 12 15 25 22 31 13 9 20 10 56 6 31 -4 38 -82 7 -82 -8 0 -14 -4 -14 -10
0 -20 23 -9 56 25 40 43 71 56 102 42 28 -13 29 -46 0 -82 l-21 -27 24 7 c13
4 26 12 27 16 13 32 20 -11 25 -147 3 -86 8 -158 11 -161 3 -3 26 2 51 12 l46
17 -2 124 c-1 119 0 125 22 143 24 19 24 19 48 -2 l24 -22 -5 28 c-8 41 23 68
64 56 36 -10 34 -8 42 -36 5 -15 1 -28 -13 -42 -16 -16 -17 -21 -6 -21 9 0 12
-6 9 -15 -5 -12 2 -15 33 -15 l40 0 12 54 c8 36 18 55 29 58 11 3 25 27 37 62
l20 58 40 -7 c22 -3 43 -9 48 -14 4 -4 0 -29 -8 -57 -8 -27 -15 -50 -15 -52 0
-2 14 -2 32 0 27 3 33 9 45 45 13 37 17 41 41 37 15 -3 29 -9 30 -15 2 -5 11
-9 19 -9 12 0 14 -8 10 -36 l-6 -35 37 3 c30 2 38 7 40 26 4 26 1 25 58 11 37
-10 44 -15 44 -35 0 -21 5 -24 34 -24 19 0 37 4 41 9 3 5 20 7 38 4 28 -4 35
-1 45 21 16 35 15 56 -1 56 -7 0 -21 6 -30 13 -15 11 -15 16 0 73 18 68 14 94
-16 94 -24 0 -44 -28 -61 -85 -7 -22 -15 -43 -19 -47 -6 -7 -84 12 -95 23 -3
2 2 31 10 63 18 71 12 100 -22 93 -28 -5 -28 -4 -14 128 6 50 10 162 10 249 0
123 3 157 12 148 24 -24 40 -14 36 23 l-4 35 87 0 88 0 -6 -34 c-8 -53 14 -56
59 -8 33 36 45 42 78 42 38 0 39 -1 30 -25 -5 -14 -7 -32 -4 -40 5 -13 9 -13
34 0 l28 14 -15 -55 c-9 -38 -11 -64 -5 -82 9 -26 10 -26 21 18 30 112 38 135
48 133 6 -1 56 19 111 45 96 45 99 48 90 72 -6 15 -12 20 -15 13 -3 -7 -13
-13 -23 -13 -29 0 -50 -11 -50 -26 0 -21 -30 -17 -31 4 -1 9 -1 20 0 25 0 4
-4 7 -9 7 -5 0 -10 -4 -10 -10 0 -5 -25 -10 -56 -10 -54 0 -56 1 -52 24 l5 24
-206 6 c-242 8 -529 23 -607 32 -47 6 -54 9 -49 25 8 24 3 24 -18 1z m187
-108 c3 -8 2 -12 -4 -9 -6 3 -10 10 -10 16 0 14 7 11 14 -7z m591 -17 c1 -33
-30 -38 -38 -5 -8 27 0 40 21 36 11 -2 17 -13 17 -31z m-1021 -533 c17 -45
-25 -91 -69 -74 -48 18 -52 92 -5 103 23 5 68 -13 74 -29z m-126 -89 c14 -13
4 -68 -14 -79 -26 -15 -65 -26 -59 -16 3 4 -2 11 -11 14 -10 4 -13 2 -8 -7 5
-9 4 -9 -7 1 -7 6 -21 12 -30 12 -22 0 -33 29 -14 36 9 4 23 0 32 -7 13 -11
15 -11 9 -1 -5 9 1 23 15 38 19 20 30 24 53 20 16 -4 32 -8 34 -11z m149 -32
c13 -19 12 -24 -15 -54 -27 -30 -32 -32 -47 -19 -9 8 -30 13 -46 12 -16 -1
-29 2 -29 7 0 14 26 32 35 23 5 -4 5 -1 1 6 -5 8 -1 21 10 33 23 26 72 22 91
-8z m-251 -81 c16 -11 23 -47 12 -66 -5 -9 -23 -23 -40 -32 -16 -9 -28 -11
-24 -6 6 10 -35 32 -61 32 -10 0 -13 6 -9 16 3 9 6 18 6 20 0 2 5 4 10 4 6 0
20 9 32 20 22 20 54 26 74 12z m157 -17 c21 -9 22 -43 2 -72 -14 -20 -13 -21
5 -16 11 3 23 9 25 14 8 12 35 -1 35 -17 0 -10 -8 -12 -30 -8 -18 4 -36 1 -46
-7 -13 -10 -17 -10 -24 0 -4 8 -16 14 -26 15 -44 5 -73 18 -67 32 3 8 11 14
19 14 8 0 14 5 14 12 0 36 46 52 93 33z m198 -41 c10 -28 -3 -64 -30 -81 -14
-9 -23 -7 -44 10 -14 12 -27 29 -28 37 -3 31 1 51 11 45 6 -3 10 -2 10 4 0 11
38 19 58 13 8 -3 18 -15 23 -28z m-131 -104 c12 -22 5 -60 -11 -60 -5 0 -9 18
-9 40 0 45 4 49 20 20z"/>
<path d="M5894 3865 c22 -17 40 -20 32 -6 -3 5 -16 11 -28 14 -22 6 -22 5 -4
-8z"/>
<path d="M8756 3855 c5 -13 9 -13 23 -3 9 7 18 14 20 15 2 2 -8 3 -22 3 -20 0
-25 -4 -21 -15z"/>
<path d="M8770 3797 c0 -9 -7 -17 -17 -17 -9 0 2 -13 27 -31 l42 -31 -22 -23
-22 -23 22 -7 c25 -8 24 -9 39 35 11 33 10 36 -29 74 -29 30 -40 36 -40 23z"/>
<path d="M4407 3762 c-12 -13 -17 -37 -17 -84 0 -60 -22 -148 -51 -204 -6 -12
-9 -30 -7 -40 3 -17 11 -19 79 -15 76 3 76 3 87 -25 6 -16 27 -71 47 -123 19
-52 34 -99 32 -104 -4 -13 -204 124 -277 192 -36 33 -68 56 -71 53 -4 -4 -16
-45 -29 -92 -12 -47 -27 -90 -32 -97 -8 -9 -27 -4 -81 23 -39 20 -88 47 -108
60 l-37 23 14 67 c8 37 13 69 11 70 -2 2 -18 -27 -36 -64 l-32 -67 52 -90 52
-90 77 3 77 4 50 -114 50 -113 128 -3 c94 -2 130 1 136 10 6 10 110 41 115 35
1 -1 43 -62 93 -136 80 -118 91 -140 91 -178 0 -32 -4 -43 -15 -43 -8 0 -15
-7 -15 -15 0 -8 6 -15 14 -15 7 0 16 -10 20 -22 3 -13 6 -152 6 -310 l0 -288
29 0 c16 0 33 6 39 13 14 17 18 252 7 460 -7 141 -6 167 6 167 10 0 10 3 3 8
-7 4 -14 45 -17 94 l-5 87 49 78 c33 54 61 86 91 105 23 15 45 25 48 22 2 -3
7 -29 10 -57 l5 -52 51 -3 c47 -3 51 -5 62 -36 11 -29 22 -37 97 -66 l85 -33
0 -58 c0 -51 -3 -59 -19 -59 -26 0 -84 21 -96 35 -5 7 -41 34 -80 61 -38 26
-97 72 -129 100 -68 60 -60 64 -105 -48 -22 -55 -23 -94 -5 -143 3 -7 0 -15
-8 -18 -7 -2 -5 -3 5 -1 13 2 24 -12 42 -51 l23 -53 64 -7 c34 -4 78 -5 97 -3
31 3 36 8 59 63 14 33 26 61 27 63 1 1 13 -2 26 -7 13 -5 19 -10 13 -10 -5 -1
-19 -8 -30 -16 -17 -13 -14 -13 27 -1 63 18 94 6 85 -34 -4 -25 -2 -30 13 -30
10 0 23 -8 27 -17 5 -10 9 -163 9 -340 0 -177 3 -324 6 -327 3 -4 18 -2 32 3
l26 10 -6 274 -6 275 24 38 c13 22 43 70 67 107 l44 68 23 -25 23 -25 63 24
c35 14 63 25 63 25 1 0 2 -93 4 -207 3 -200 8 -233 34 -217 4 3 8 94 8 203 0
240 8 271 68 271 92 0 104 7 150 84 l43 71 -53 -52 -53 -51 -32 16 c-38 18
-38 20 -18 69 8 19 15 42 15 50 0 18 -51 92 -64 93 -4 0 -50 -38 -101 -85
l-92 -85 -97 0 c-53 0 -96 2 -96 4 0 3 29 53 64 113 35 59 62 110 60 112 -7 7
-55 -42 -69 -70 -12 -23 -23 -27 -101 -38 -48 -7 -90 -9 -94 -4 -112 129 -201
246 -196 258 3 8 30 26 60 39 29 13 83 47 119 75 73 57 95 62 152 33 50 -25
57 -20 22 16 -26 27 -26 29 -10 44 10 8 28 21 41 27 19 10 21 15 11 27 -9 11
-9 21 0 40 6 14 11 27 11 30 0 3 -29 4 -65 3 -58 -2 -65 -4 -59 -21 8 -26 -7
-22 -32 9 -17 21 -25 25 -35 17 -184 -145 -248 -194 -256 -194 -5 0 -22 63
-37 140 -16 78 -33 143 -37 145 -10 7 -77 -71 -96 -111 -15 -30 -20 -32 -82
-38 -36 -4 -87 -9 -112 -12 l-46 -6 -142 176 c-78 97 -146 176 -150 176 -4 0
-15 -8 -24 -18z m609 -657 c8 -19 -80 -149 -110 -163 -22 -10 -23 -9 -22 61 1
39 6 72 11 74 6 2 28 12 50 22 49 24 64 25 71 6z m-241 -17 c25 -11 37 -41 13
-33 -57 20 -68 26 -63 35 8 13 18 13 50 -2z m278 -58 c-23 -22 -28 -18 -13 9
6 12 16 19 21 15 6 -4 3 -13 -8 -24z m-353 -27 c-1 -35 -2 -36 -15 -19 -11 14
-11 22 -2 37 16 26 17 25 17 -18z m106 4 c1 -1 5 -49 9 -107 l7 -105 -21 27
c-11 14 -21 29 -21 33 0 4 -13 24 -28 44 -24 31 -28 43 -24 88 l4 52 36 -15
c20 -8 37 -16 38 -17z m762 -306 l33 -41 -57 -88 -58 -87 -7 35 c-4 19 -10 55
-13 80 -3 25 -8 69 -12 97 -6 48 -4 54 17 73 l24 19 20 -23 c11 -13 35 -43 53
-65z"/>
<path d="M6002 3760 c0 -14 2 -19 5 -12 2 6 2 18 0 25 -3 6 -5 1 -5 -13z"/>
<path d="M5251 3739 c-6 -17 -6 -30 1 -37 7 -7 0 -15 -21 -26 -17 -9 -31 -24
-31 -33 0 -13 7 -14 38 -9 20 3 43 6 50 6 6 0 12 9 12 20 0 26 21 70 33 70 6
0 30 -16 53 -36 38 -30 43 -39 38 -62 -4 -15 -4 -24 0 -20 4 3 17 -3 29 -15
16 -16 22 -18 25 -6 3 8 12 18 20 23 13 8 9 15 -24 42 -21 19 -34 34 -28 34 6
0 17 -7 24 -15 8 -10 31 -15 70 -15 53 0 58 -2 64 -25 8 -32 26 -33 26 -1 0
20 6 25 40 31 22 4 40 11 40 16 0 5 12 9 27 9 21 0 24 -3 15 -12 -7 -7 -12
-26 -12 -42 l0 -30 39 38 c31 30 37 42 29 55 -8 13 -25 15 -94 13 -79 -3 -84
-2 -84 17 0 20 -6 21 -112 22 -62 0 -146 3 -185 7 -72 8 -73 8 -82 -19z m367
-32 c2 -10 -3 -17 -12 -17 -18 0 -29 16 -21 31 9 14 29 6 33 -14z"/>
<path d="M10442 3627 l-152 -71 -33 -101 c-33 -98 -65 -165 -79 -165 -5 0 -8
3 -8 8 0 20 -61 72 -84 72 -20 0 -26 5 -27 23 0 18 -3 16 -15 -12 -11 -23 -12
-36 -5 -41 8 -4 7 -12 -3 -25 -13 -18 -14 -17 -29 12 -9 17 -13 33 -10 37 4 3
1 6 -5 6 -18 0 -14 -32 7 -57 20 -23 51 -31 51 -13 0 6 7 10 15 10 8 0 15 -4
15 -10 0 -5 5 -10 11 -10 5 0 7 6 3 13 -5 8 -2 7 9 -2 14 -11 15 -17 5 -30
-27 -36 -55 -51 -98 -52 -30 -1 -36 -3 -17 -6 27 -4 35 -17 17 -28 -5 -3 -10
-42 -10 -86 0 -43 -4 -79 -9 -79 -4 0 -21 10 -36 22 l-28 21 12 -22 c7 -12 24
-27 37 -33 21 -10 25 -17 20 -42 -6 -35 0 -48 31 -65 13 -6 30 -25 39 -42 8
-17 18 -29 20 -26 3 3 -2 20 -12 39 l-17 33 26 -24 c24 -22 29 -23 57 -11 17
7 32 11 33 9 2 -2 8 -16 14 -30 10 -23 20 -28 67 -33 31 -4 56 -11 56 -15 0
-4 -18 -24 -40 -46 l-40 -39 31 -54 30 -54 -2 -271 c-2 -252 -1 -271 16 -284
11 -7 27 -13 37 -13 17 0 18 15 18 245 l0 245 82 0 c68 0 85 3 103 20 l21 20
17 -72 c16 -68 16 -80 1 -185 -18 -121 -15 -143 14 -143 17 0 22 15 37 135 15
112 21 138 37 146 10 5 17 13 14 17 -4 7 47 80 110 155 l31 37 39 -28 c21 -15
44 -31 51 -35 7 -5 28 23 57 79 25 47 46 88 46 91 0 3 -34 2 -75 -2 -60 -6
-75 -5 -74 6 0 8 17 57 39 109 21 52 36 97 35 99 -2 1 -33 -7 -69 -19 -50 -16
-66 -26 -66 -40 0 -22 -17 -33 -73 -48 -37 -10 -41 -9 -80 27 l-40 38 21 36
22 35 -122 97 c-68 53 -165 129 -217 168 -68 52 -89 73 -75 74 10 2 80 -3 154
-10 l135 -12 22 -45 c12 -25 31 -75 43 -112 12 -37 25 -70 30 -73 10 -6 108
32 128 50 10 9 102 301 102 325 0 14 -129 41 -285 60 -88 11 -164 20 -170 20
-5 0 35 30 90 66 162 108 157 109 -53 11z m-295 -397 c-22 -39 -38 -49 -18
-12 6 12 11 30 11 41 0 14 5 19 15 15 12 -5 11 -12 -8 -44z m-43 -167 c6 -20
4 -23 -18 -23 -29 0 -31 7 -14 45 12 27 19 23 32 -22z m696 -277 c-4 -76 -9
-99 -25 -118 -12 -13 -47 -54 -80 -92 l-59 -68 -13 43 c-17 59 -17 63 13 98
l26 32 -47 42 c-26 23 -59 48 -72 55 -24 13 -24 14 -7 34 20 22 23 20 64 -40
l15 -22 94 65 c52 36 95 65 95 65 1 0 -1 -42 -4 -94z"/>
<path d="M9785 3563 c-77 -51 -93 -96 -59 -163 21 -41 98 -109 110 -97 7 7
-28 77 -36 72 -14 -9 -19 70 -8 110 6 22 22 51 35 66 43 47 20 54 -42 12z"/>
<path d="M9928 3514 c4 -42 6 -45 31 -43 30 4 54 -8 46 -22 -4 -5 -22 -9 -41
-9 -38 0 -47 -12 -42 -55 l3 -27 28 22 c15 12 34 19 42 16 20 -7 27 8 27 62 0
40 -5 51 -31 74 -17 16 -39 28 -49 28 -14 0 -17 -8 -14 -46z"/>
<path d="M9861 3524 c-40 -33 -40 -52 1 -56 49 -5 48 -28 -1 -28 -58 0 -56
-24 6 -67 27 -19 32 -20 37 -7 10 25 7 184 -3 184 -5 0 -23 -12 -40 -26z"/>
<path d="M7160 3426 c0 -6 18 -32 41 -58 l41 -49 -17 -42 c-12 -27 -20 -83
-24 -162 l-6 -120 -47 3 c-42 3 -47 1 -51 -20 -4 -21 -4 -21 -6 -2 -1 17 -10
23 -42 28 -23 4 -43 5 -45 3 -2 -2 -1 -59 3 -127 l6 -122 31 -13 c17 -7 50
-15 74 -18 l42 -5 0 79 c0 73 -2 80 -22 89 -13 5 -16 9 -8 9 36 1 43 -15 41
-92 -2 -58 1 -76 13 -80 8 -3 20 -24 26 -45 l10 -40 248 -5 c136 -4 262 -9
280 -13 l33 -6 -3 298 c-3 270 -5 302 -22 334 -33 61 -75 107 -124 136 -41 25
-56 28 -127 28 -140 -2 -152 -5 -201 -54 l-44 -44 -33 39 c-62 75 -66 80 -67
71z m290 -366 l40 0 2 123 2 122 3 -122 4 -123 79 0 80 0 2 108 2 107 3 -105
c3 -98 5 -106 26 -115 24 -11 33 -42 17 -65 -7 -11 -34 -16 -110 -18 l-100 -4
0 -53 0 -54 80 0 c73 0 80 2 80 20 0 18 -2 19 -15 5 -19 -18 -41 -12 -48 14
-7 26 7 42 34 38 17 -2 26 -13 34 -39 5 -20 16 -43 23 -51 13 -16 7 -48 -10
-48 -5 0 -8 -30 -6 -67 3 -62 5 -68 28 -74 14 -4 -77 -7 -202 -8 -205 -1 -269
6 -207 22 20 5 21 11 18 94 l-4 88 48 3 47 3 0 55 0 54 -43 0 c-30 0 -50 6
-65 20 -40 38 -22 62 52 68 l56 4 2 132 2 131 3 -132 4 -133 39 0z"/>
<path d="M7410 2915 l0 -55 40 0 40 0 0 55 0 55 -40 0 -40 0 0 -55z"/>
<path d="M7322 2735 l3 -60 38 -3 37 -3 0 59 0 60 -40 4 -41 4 3 -61z"/>
<path d="M7410 2736 c0 -57 7 -66 56 -66 23 0 24 3 24 60 l0 60 -40 0 -40 0 0
-54z"/>
<path d="M7502 2733 l3 -58 38 -3 37 -3 0 60 0 61 -40 0 -41 0 3 -57z"/>
<path d="M7590 2730 l0 -60 35 0 35 0 0 60 0 60 -35 0 -35 0 0 -60z"/>
<path d="M8398 3371 c3 -42 7 -50 25 -53 29 -4 28 -32 0 -36 -20 -3 -23 -9
-23 -47 0 -41 12 -54 53 -55 4 0 7 46 7 103 -1 108 -10 137 -46 137 -17 0 -19
-6 -16 -49z"/>
<path d="M6290 3395 c0 -8 4 -15 10 -15 5 0 7 7 4 15 -4 8 -8 15 -10 15 -2 0
-4 -7 -4 -15z"/>
<path d="M8362 3383 c-5 -10 -12 -30 -16 -44 -5 -23 -2 -27 19 -31 24 -5 25
-3 25 43 0 50 -12 63 -28 32z"/>
<path d="M6140 3372 c0 -19 6 -22 38 -22 20 0 44 5 52 10 11 7 5 8 -18 4 -24
-5 -38 -2 -52 11 -19 17 -20 17 -20 -3z"/>
<path d="M6292 3349 c5 -14 48 -32 48 -20 0 4 -12 13 -26 20 -20 9 -25 9 -22
0z"/>
<path d="M8270 3243 c0 -59 -4 -93 -11 -93 -6 0 -9 -14 -7 -32 2 -28 8 -34 31
-36 24 -3 27 0 27 27 0 16 -6 31 -12 34 -7 2 -5 3 4 2 23 -4 28 14 28 105 l0
78 -30 4 -30 5 0 -94z"/>
<path d="M9177 3299 c7 -7 15 -10 18 -7 3 3 -2 9 -12 12 -14 6 -15 5 -6 -5z"/>
<path d="M7771 3290 c0 -8 4 -22 9 -30 12 -18 12 -2 0 25 -6 13 -9 15 -9 5z"/>
<path d="M5630 3270 c-13 -8 -12 -10 3 -10 9 0 17 5 17 10 0 12 -1 12 -20 0z"/>
<path d="M7060 3273 c0 -4 24 -21 53 -36 33 -18 43 -21 28 -9 -37 29 -81 54
-81 45z"/>
<path d="M8340 3221 c0 -44 2 -48 23 -47 19 1 22 7 25 49 3 45 2 47 -22 47
-24 0 -26 -3 -26 -49z"/>
<path d="M9820 3261 c0 -7 13 -20 30 -29 16 -9 35 -27 41 -39 7 -13 14 -21 16
-19 6 6 -20 56 -29 56 -5 0 -6 5 -2 12 5 7 3 8 -5 4 -7 -5 -21 0 -32 10 -12
10 -19 13 -19 5z"/>
<path d="M2488 3243 l-78 -4 0 -165 c0 -128 -3 -165 -12 -162 -8 3 -18 39 -25
89 -6 46 -12 85 -12 86 -1 2 -115 -9 -119 -12 -5 -4 147 -306 155 -306 4 -1
13 -5 19 -10 16 -13 64 6 64 26 0 8 9 32 20 52 11 21 20 45 20 53 0 8 16 58
36 110 20 52 49 130 65 173 l28 77 -42 -2 c-23 -1 -77 -4 -119 -5z"/>
<path d="M9880 3159 c0 -10 12 -26 28 -36 15 -10 33 -25 40 -33 11 -13 11 -12
3 7 -6 11 -24 35 -41 51 -26 26 -30 28 -30 11z"/>
<path d="M6002 3088 c-12 -28 -21 -52 -19 -52 1 -1 12 -6 24 -13 21 -12 21
-10 25 48 1 34 0 63 -3 64 -3 2 -15 -19 -27 -47z"/>
<path d="M2153 3053 l-32 -4 -3 -127 c-3 -139 -2 -152 16 -152 8 0 27 56 49
139 21 77 37 142 37 145 0 6 -10 6 -67 -1z"/>
<path d="M8260 2910 c0 -100 3 -120 15 -120 13 0 15 20 15 120 0 100 -2 120
-15 120 -12 0 -15 -20 -15 -120z"/>
<path d="M8136 2949 c-3 -34 -6 -92 -6 -129 l0 -67 53 14 c73 18 80 23 25 17
l-48 -6 0 116 c0 125 -13 155 -24 55z"/>
<path d="M8377 2916 c-6 -46 -5 -72 2 -79 16 -16 17 -10 11 73 l-5 75 -8 -69z"/>
<path d="M6155 2960 c-4 -6 9 -10 31 -10 42 0 42 4 2 14 -15 3 -30 2 -33 -4z"/>
<path d="M2613 2943 l-51 -4 -4 -55 c-1 -31 -1 -78 0 -105 3 -41 7 -49 23 -49
11 0 22 8 25 18 3 9 23 57 45 105 44 99 44 98 27 95 -7 -1 -36 -3 -65 -5z"/>
<path d="M1225 2901 c-6 -5 -30 -11 -55 -13 l-45 -3 3 -90 c2 -64 0 -86 -7
-75 -12 17 -6 -36 10 -102 10 -39 15 -43 35 -30 9 6 75 235 86 296 3 21 -13
31 -27 17z"/>
<path d="M1283 2904 c-14 -6 -12 -14 39 -131 23 -51 45 -93 51 -93 14 0 0 47
-40 130 -20 41 -36 81 -36 88 0 6 -1 12 -1 11 -1 0 -6 -3 -13 -5z"/>
<path d="M1316 2892 c3 -13 23 -60 45 -105 22 -45 37 -72 34 -59 -4 12 -24 59
-46 105 -22 45 -37 72 -33 59z"/>
<path d="M7814 2796 c0 -52 4 -98 9 -102 4 -4 7 18 7 48 0 30 3 76 6 102 6 37
4 46 -9 46 -12 0 -15 -16 -13 -94z"/>
<path d="M4385 2840 c9 -32 19 -43 36 -38 10 2 5 12 -14 33 -28 29 -29 30 -22
5z"/>
<path d="M1700 2839 c-19 -4 -42 -6 -50 -4 -23 7 -36 -7 -43 -44 -8 -36 9
-161 23 -175 13 -13 38 6 59 45 11 18 24 33 29 32 6 -1 8 6 5 16 -2 10 9 46
26 80 31 61 31 61 9 60 -13 -1 -39 -5 -58 -10z"/>
<path d="M8574 2805 c-18 -28 -14 -93 11 -169 7 -22 16 -66 19 -96 8 -64 22
-129 30 -137 20 -20 15 27 -17 183 -35 164 -36 179 -22 207 18 36 18 37 5 37
-5 0 -17 -11 -26 -25z"/>
<path d="M6696 2764 c-3 -9 -6 -31 -6 -50 0 -33 1 -34 40 -34 36 0 40 -2 40
-25 0 -22 4 -25 33 -24 17 1 43 5 57 9 23 8 23 8 -8 9 -41 1 -72 17 -72 36 0
8 -18 24 -39 35 -31 15 -38 24 -34 40 6 24 -2 27 -11 4z"/>
<path d="M8085 2760 c-3 -5 1 -10 9 -10 9 0 16 5 16 10 0 6 -4 10 -9 10 -6 0
-13 -4 -16 -10z"/>
<path d="M6451 2755 c0 -5 16 -28 36 -50 19 -22 31 -31 25 -20 -16 30 -61 81
-61 70z"/>
<path d="M6114 2728 c-11 -13 -26 -32 -34 -43 -14 -19 -14 -19 3 -6 18 14 62
71 54 71 -2 0 -12 -10 -23 -22z"/>
<path d="M1813 2733 l-42 -4 6 -72 c9 -118 40 -121 81 -7 11 30 23 63 27 73 5
13 3 17 -11 15 -11 -1 -38 -3 -61 -5z"/>
<path d="M2057 2709 c-6 -22 -14 -27 -64 -35 l-58 -9 -6 -80 c-5 -73 -5 -75
-7 -22 -1 31 -6 57 -11 57 -8 0 -7 -40 5 -116 3 -21 11 -34 24 -37 23 -6 26
-2 75 88 22 39 50 85 63 103 19 25 21 32 9 32 -9 0 -17 10 -19 23 -3 21 -4 21
-11 -4z"/>
<path d="M2215 2711 c-3 -6 -17 -11 -31 -11 -13 0 -24 -4 -24 -10 0 -17 60
-12 67 5 7 19 -2 31 -12 16z"/>
<path d="M2287 2713 c19 -4 21 -7 12 -27 -8 -18 -6 -30 11 -59 27 -46 67 -55
159 -37 77 15 101 25 101 45 0 10 15 15 48 17 41 3 47 6 50 27 3 19 0 22 -13
17 -43 -16 -68 -18 -75 -5 -6 9 -12 10 -22 2 -25 -20 -129 -37 -211 -34 -26 1
-28 3 -22 31 6 29 5 30 -27 29 -22 -1 -26 -3 -11 -6z"/>
<path d="M8334 2695 c-14 -21 -14 -33 -4 -97 7 -40 16 -80 21 -89 4 -9 10 -49
13 -90 7 -93 16 -140 25 -134 4 2 -3 77 -15 167 -29 201 -29 237 -6 254 16 13
16 13 0 14 -10 0 -25 -11 -34 -25z"/>
<path d="M4275 2690 c-3 -6 -4 -19 0 -29 7 -22 61 -45 70 -30 4 5 1 9 -5 9
-19 0 -57 34 -52 48 4 14 -4 16 -13 2z"/>
<path d="M3010 2612 l-45 -37 10 -43 11 -44 49 45 c28 24 60 49 73 56 12 6 22
15 22 19 0 7 -65 44 -73 41 -1 0 -22 -17 -47 -37z"/>
<path d="M1595 2620 c3 -5 8 -10 11 -10 2 0 4 5 4 10 0 6 -5 10 -11 10 -5 0
-7 -4 -4 -10z"/>
<path d="M1543 2613 c9 -2 23 -2 30 0 6 3 -1 5 -18 5 -16 0 -22 -2 -12 -5z"/>
<path d="M8049 2584 c-11 -13 -10 -27 5 -82 10 -37 19 -73 20 -80 1 -7 7 -17
13 -23 5 -5 1 23 -10 64 -18 69 -18 77 -4 106 12 24 13 31 2 31 -7 0 -18 -7
-26 -16z"/>
<path d="M6180 2551 c0 -30 1 -30 48 -29 26 1 54 0 62 -3 11 -3 15 4 15 26 0
30 0 30 -62 33 l-63 3 0 -30z"/>
<path d="M1550 2559 c0 -17 29 -21 78 -11 46 11 46 11 7 8 -22 -2 -50 1 -62 5
-14 5 -23 5 -23 -2z"/>
<path d="M1254 2543 c1 -23 -53 -42 -121 -42 -48 -1 -53 1 -54 22 0 21 -1 21
-8 2 -5 -11 -5 -25 0 -31 5 -6 6 -14 2 -17 -19 -20 132 5 179 29 27 14 36 54
12 54 -6 0 -11 -8 -10 -17z"/>
<path d="M3356 2543 c-6 -14 -5 -15 5 -6 7 7 10 15 7 18 -3 3 -9 -2 -12 -12z"/>
<path d="M3910 2495 c0 -12 33 -70 44 -77 6 -4 25 -7 41 -7 l30 1 -31 9 c-29
8 -71 54 -66 72 1 4 -2 7 -8 7 -5 0 -10 -2 -10 -5z"/>
<path d="M3232 2465 c0 -16 2 -22 5 -12 2 9 2 23 0 30 -3 6 -5 -1 -5 -18z"/>
<path d="M3356 2475 c-3 -8 -1 -17 3 -20 5 -3 11 2 15 10 3 8 1 17 -3 20 -5 3
-11 -2 -15 -10z"/>
<path d="M3470 2435 c-8 -9 -8 -15 -2 -15 12 0 26 19 19 26 -2 2 -10 -2 -17
-11z"/>
<path d="M3575 2400 c-3 -5 -1 -10 4 -10 6 0 11 5 11 10 0 6 -2 10 -4 10 -3 0
-8 -4 -11 -10z"/>
<path d="M3775 2390 c3 -5 8 -10 11 -10 2 0 4 5 4 10 0 6 -5 10 -11 10 -5 0
-7 -4 -4 -10z"/>
<path d="M9746 2392 c-8 -14 12 -28 59 -41 57 -16 60 -14 28 13 -33 28 -78 42
-87 28z"/>
<path d="M7990 2373 c0 -18 35 -103 42 -103 12 0 10 14 -12 64 -18 42 -30 58
-30 39z"/>
<path d="M3690 2360 c0 -5 4 -10 9 -10 6 0 13 5 16 10 3 6 -1 10 -9 10 -9 0
-16 -4 -16 -10z"/>
<path d="M705 2278 c-33 -28 -61 -55 -63 -59 -2 -5 12 -9 30 -9 19 0 70 -9
114 -21 43 -11 88 -23 99 -25 11 -2 50 -12 87 -23 l67 -19 -21 29 c-14 19 -23
46 -24 76 l-2 47 -103 28 c-57 15 -108 27 -114 27 -5 0 -37 -23 -70 -51z"/>
<path d="M3780 2319 c0 -5 5 -7 10 -4 6 3 10 8 10 11 0 2 -4 4 -10 4 -5 0 -10
-5 -10 -11z"/>
<path d="M3900 2290 c0 -5 5 -10 10 -10 6 0 10 5 10 10 0 6 -4 10 -10 10 -5 0
-10 -4 -10 -10z"/>
<path d="M8114 2286 c3 -10 11 -38 17 -63 7 -24 14 -41 17 -39 7 7 -19 99 -31
111 -7 7 -8 4 -3 -9z"/>
<path d="M2870 2218 c-279 -104 -785 -217 -1265 -282 -207 -28 -310 -37 -505
-43 -230 -6 -241 -7 -185 -19 202 -42 652 -44 920 -5 350 51 638 130 920 253
69 30 255 135 255 144 0 5 15 10 -140 -48z"/>
<path d="M3996 2261 c-4 -7 -5 -15 -2 -18 9 -9 19 4 14 18 -4 11 -6 11 -12 0z"/>
<path d="M6736 2238 c-10 -49 -16 -137 -10 -152 3 -9 14 -16 23 -16 9 0 27 -6
41 -13 24 -13 25 -12 25 22 0 32 -4 38 -39 54 l-39 17 7 55 c6 54 1 76 -8 33z"/>
<path d="M4095 2220 c-3 -5 -2 -10 4 -10 5 0 13 5 16 10 3 6 2 10 -4 10 -5 0
-13 -4 -16 -10z"/>
<path d="M504 2083 c11 -105 12 -107 72 -136 l55 -27 -7 72 c-3 40 -10 79 -14
86 -3 7 -30 27 -60 44 l-53 30 7 -69z"/>
<path d="M7705 2130 c-16 -4 -57 -8 -90 -9 -49 -1 -66 -7 -90 -28 l-30 -25 36
21 c23 13 53 21 84 21 47 0 48 0 30 -20 -10 -11 -14 -20 -10 -20 5 0 1 -6 -10
-13 -10 -8 -15 -18 -12 -24 4 -6 -5 -21 -20 -34 -14 -13 -23 -18 -19 -11 13
22 -10 12 -38 -17 -32 -33 -86 -47 -117 -31 -17 9 -23 8 -34 -6 -7 -10 -11
-24 -8 -31 3 -7 0 -13 -5 -13 -20 0 -98 -81 -84 -87 7 -3 25 -15 40 -28 l26
-22 -69 -16 c-77 -17 -197 -24 -232 -13 -14 5 -23 15 -23 28 0 15 -3 18 -13
10 -8 -7 -18 -7 -27 -2 -24 15 -32 12 -25 -11 6 -18 4 -19 -13 -10 -34 18 -33
-1 3 -34 l34 -33 -55 -21 c-56 -21 -187 -28 -243 -12 l-23 6 26 14 c14 8 26
18 26 23 0 4 6 8 13 8 8 0 23 8 35 18 24 21 13 52 -18 52 -10 0 -41 5 -67 10
-47 11 -48 11 -49 50 -3 65 -76 169 -145 205 -14 8 -52 17 -85 20 -52 6 -63 4
-94 -17 -51 -35 -70 -83 -71 -181 0 -89 15 -139 51 -172 l22 -20 -28 -6 c-16
-4 -48 -7 -72 -8 -60 -1 -242 -93 -242 -121 0 -11 3 -20 8 -20 4 0 67 -9 140
-19 86 -12 144 -16 163 -11 16 5 29 7 29 5 0 -2 39 14 86 35 84 39 108 43 98
16 -4 -10 8 -16 42 -21 67 -10 94 -24 94 -51 0 -24 17 -34 58 -34 15 0 62 -21
104 -47 l78 -47 0 -78 c0 -43 -4 -78 -9 -78 -13 0 -21 26 -21 65 0 21 -6 35
-17 39 -20 8 -35 -12 -29 -39 3 -11 8 -46 11 -77 7 -52 10 -58 31 -58 49 0 21
-18 -83 -54 -60 -21 -123 -43 -142 -49 -38 -13 -50 -31 -27 -40 9 -4 13 -1 10
6 -3 9 38 27 123 56 71 24 134 46 141 48 7 3 12 -4 12 -21 0 -26 -19 -35 -132
-61 -24 -6 -77 -51 -67 -58 2 -1 27 -10 54 -20 28 -10 68 -26 90 -34 22 -8 99
-24 170 -35 125 -19 133 -19 210 -2 67 15 95 28 174 81 l95 64 30 -30 c27 -27
28 -33 18 -56 -35 -76 12 -155 92 -155 32 0 57 31 72 90 17 67 95 160 133 160
15 0 31 4 37 10 6 6 36 2 83 -10 41 -11 82 -20 92 -20 9 0 19 -7 23 -15 4 -12
23 -15 82 -15 l77 0 -6 -45 c-13 -92 -20 -233 -13 -269 6 -31 11 -37 28 -34
14 2 25 14 30 33 23 81 70 301 83 386 16 107 27 143 51 167 13 12 15 27 9 66
-8 64 -6 130 5 181 5 22 16 96 24 165 9 69 18 140 21 158 5 27 3 32 -15 32
-13 0 -20 -7 -20 -18 0 -10 -20 -86 -45 -170 -25 -83 -45 -162 -46 -174 -1
-17 -4 -14 -13 14 -6 20 -21 48 -33 62 l-22 25 27 3 c42 5 40 35 -4 74 -39 36
-54 42 -54 23 0 -14 -58 -8 -199 18 l-94 18 7 151 c5 121 11 159 26 190 32 62
25 91 -30 128 -26 17 -156 21 -215 6z m149 -91 c68 -22 89 -40 67 -62 -9 -9
-16 -6 -30 12 -17 22 -21 23 -51 12 -38 -13 -189 -15 -209 -2 -17 11 -5 19 68
42 72 23 75 23 155 -2z m-1374 -20 c8 -5 11 -9 5 -9 -6 0 -10 -48 -10 -123 0
-190 -9 -218 -68 -203 -27 6 -41 32 -43 81 -3 88 -5 205 -5 238 l1 39 53 -7
c28 -4 59 -11 67 -16z m1287 -45 c-3 -3 -12 -4 -19 -1 -8 3 -5 6 6 6 11 1 17
-2 13 -5z m113 -28 c0 -19 -27 -28 -33 -11 -7 15 1 25 20 25 7 0 13 -6 13 -14z
m-62 -58 c-2 -11 -11 -22 -21 -24 -17 -2 -16 6 6 34 14 18 19 15 15 -10z m57
-195 c-6 -35 -17 -39 -59 -23 -24 9 -26 14 -26 77 0 66 1 68 43 111 l42 43 3
-88 c2 -48 0 -103 -3 -120z m-105 158 c0 -5 -6 -14 -14 -20 -10 -9 -15 -8 -19
3 -3 8 -3 17 0 20 9 9 33 7 33 -3z m-50 -55 c0 -7 -7 -19 -15 -26 -12 -10 -16
-9 -21 5 -4 10 -1 21 7 26 20 12 29 11 29 -5z m-47 -33 c11 -10 -24 -43 -45
-43 -25 0 -23 16 4 34 25 18 32 19 41 9z m70 -41 c-5 -40 -7 -42 -39 -42 -22
0 -34 5 -34 14 0 13 69 81 75 74 2 -2 1 -22 -2 -46z m-140 -16 c1 -5 -6 -14
-15 -20 -13 -8 -21 -7 -30 2 -10 10 -10 15 2 22 17 11 40 9 43 -4z m-86 -43
c-9 -9 -19 -14 -23 -11 -10 10 6 28 24 28 15 0 15 -1 -1 -17z m-60 -45 c-19
-12 -37 -9 -37 6 0 17 32 26 42 12 4 -6 2 -14 -5 -18z m103 -9 c0 -11 -4 -17
-10 -14 -5 3 -10 13 -10 21 0 8 5 14 10 14 6 0 10 -9 10 -21z m-733 5 c-3 -3
-12 -4 -19 -1 -8 3 -5 6 6 6 11 1 17 -2 13 -5z m82 2 c-2 -2 -17 -6 -34 -10
-22 -5 -26 -4 -15 4 14 9 59 15 49 6z m311 -18 c36 -11 71 -23 78 -24 18 -5
15 -31 -5 -36 -25 -7 -43 1 -43 18 0 10 -13 14 -42 16 -24 0 -61 3 -83 5 -22
1 -93 4 -158 4 -117 2 -131 5 -86 15 120 28 259 29 339 2z m160 -2 c0 -16 -27
-29 -42 -20 -7 5 -4 12 7 21 24 17 35 17 35 -1z m-543 -2 c-3 -3 -12 -4 -19
-1 -8 3 -5 6 6 6 11 1 17 -2 13 -5z m1178 -44 c11 -35 -12 -51 -69 -49 -28 2
-65 -1 -82 -5 -22 -5 -34 -3 -44 8 -7 9 -16 14 -20 11 -5 -3 -3 6 3 20 15 30
22 32 124 34 74 1 82 -1 88 -19z m142 13 c-20 -2 -52 -2 -70 0 -17 2 0 4 38 4
39 0 53 -2 32 -4z m-1527 -9 c0 -22 -23 -44 -41 -39 -10 4 -32 7 -49 7 -23 1
-28 4 -19 14 13 16 109 32 109 18z m610 -37 c0 -16 -18 3 -23 25 -6 22 -5 22
8 4 8 -11 15 -24 15 -29z m-35 14 c3 -5 0 -13 -5 -16 -15 -9 -60 3 -60 15 0
13 57 13 65 1z m914 -1 c29 -5 65 -18 79 -28 15 -11 33 -17 39 -15 20 7 26
-23 12 -64 -6 -21 -15 -40 -19 -43 -3 -3 -14 -30 -23 -60 l-17 -55 5 53 c3 29
8 60 11 70 5 14 4 14 -6 -2 -7 -10 -18 -50 -25 -90 -7 -39 -14 -59 -14 -45 -1
35 -11 42 -27 21 -12 -15 -13 -13 -14 19 0 20 6 54 13 75 7 22 12 50 11 64 -1
14 2 30 6 35 5 6 0 11 -13 11 -46 3 -98 12 -103 17 -7 7 14 47 25 47 5 0 32
-4 60 -10z m-1076 -6 c49 -9 48 -24 -2 -24 -44 0 -71 8 -71 21 0 10 20 11 73
3z m485 -29 c-3 -3 -9 2 -12 12 -6 14 -5 15 5 6 7 -7 10 -15 7 -18z m-188 -5
c13 -9 13 -10 0 -9 -8 0 -24 4 -35 9 l-20 9 20 0 c11 0 27 -4 35 -9z m447 -12
c-3 -8 -6 -5 -6 6 -1 11 2 17 5 13 3 -3 4 -12 1 -19z m-63 -20 c-3 -13 -8 -24
-9 -26 -3 -4 -52 -5 -93 -3 -27 1 -20 21 7 21 10 0 32 7 47 15 42 22 57 19 48
-7z m-770 -4 c3 -8 2 -12 -4 -9 -6 3 -10 10 -10 16 0 14 7 11 14 -7z m1166 6
c26 -16 4 -20 -36 -6 -38 14 -38 15 -9 15 17 0 37 -3 45 -9z m-248 -31 c55 -5
98 -15 107 -23 12 -12 11 -33 -4 -145 -14 -98 -21 -128 -30 -121 -7 5 -15 7
-18 3 -4 -3 -7 2 -7 11 0 13 -6 17 -20 13 -16 -4 -20 2 -26 39 -8 58 -32 79
-30 27 1 -51 1 -51 -189 37 l-70 33 40 13 c55 17 90 17 105 -1 7 -8 20 -15 28
-15 13 0 13 2 -3 14 -15 11 -17 22 -12 65 7 57 14 74 28 66 5 -4 51 -11 101
-16z m243 -19 c8 -13 -15 -13 -35 0 -12 8 -11 10 7 10 12 0 25 -4 28 -10z
m-25 -54 c0 -10 -7 -12 -22 -8 -21 5 -21 6 -2 13 10 4 20 8 22 8 1 1 2 -5 2
-13z m-1067 -88 c31 -11 57 -26 57 -33 0 -11 -128 -95 -144 -95 -3 0 -6 36 -6
81 0 73 2 80 18 74 9 -4 43 -16 75 -27z m1053 22 c21 -8 24 -14 16 -22 -9 -9
-15 -9 -24 0 -7 7 -20 12 -30 12 -10 0 -18 5 -18 10 0 13 22 13 56 0z m-8 -56
c32 -9 27 -26 -5 -18 -32 8 -55 24 -32 24 7 0 24 -3 37 -6z m252 -123 c0 -6
-4 -13 -10 -16 -5 -3 -10 1 -10 9 0 9 5 16 10 16 6 0 10 -4 10 -9z m-715 -118
c-6 -46 -9 -53 -29 -53 -12 0 -37 15 -55 34 l-34 35 54 49 54 50 8 -31 c5 -17
6 -55 2 -84z m105 96 c0 -12 -13 -37 -30 -56 -30 -33 -30 -34 -30 -8 0 17 5
25 17 25 13 0 14 3 5 12 -22 22 -14 48 13 48 19 0 25 -5 25 -21z m-735 -19
c-4 -6 -11 -8 -16 -5 -5 4 -9 2 -9 -3 0 -5 -6 -9 -14 -9 -8 0 -12 6 -9 14 3 7
16 13 30 13 14 0 22 -4 18 -10z m1104 -6 c2 -2 -7 -4 -22 -4 -14 0 -29 5 -32
10 -6 10 42 4 54 -6z m211 -58 c0 -3 -4 -8 -10 -11 -5 -3 -10 -1 -10 4 0 6 5
11 10 11 6 0 10 -2 10 -4z m17 -38 c-3 -8 -6 -5 -6 6 -1 11 2 17 5 13 3 -3 4
-12 1 -19z m-1007 -62 c0 -2 -8 -10 -17 -17 -16 -13 -17 -12 -4 4 13 16 21 21
21 13z m963 -139 c-14 -64 -28 -115 -31 -112 -5 4 22 140 40 198 22 74 18 28
-9 -86z m-1083 93 c-8 -5 -19 -10 -25 -10 -5 0 -3 5 5 10 8 5 20 10 25 10 6 0
3 -5 -5 -10z"/>
<path d="M7742 2031 c-11 -7 -10 -10 3 -15 20 -7 38 1 30 15 -7 11 -16 11 -33
0z"/>
<path d="M7063 1603 c9 -2 23 -2 30 0 6 3 -1 5 -18 5 -16 0 -22 -2 -12 -5z"/>
<path d="M8200 1419 c0 -5 5 -7 10 -4 6 3 10 8 10 11 0 2 -4 4 -10 4 -5 0 -10
-5 -10 -11z"/>
<path d="M6958 2053 c7 -3 16 -2 19 1 4 3 -2 6 -13 5 -11 0 -14 -3 -6 -6z"/>
<path d="M7008 2043 c7 -3 16 -2 19 1 4 3 -2 6 -13 5 -11 0 -14 -3 -6 -6z"/>
<path d="M6300 1319 c0 -52 14 -66 76 -73 82 -9 242 23 228 46 -3 5 -13 3 -23
-6 -24 -22 -133 -23 -205 -2 -49 14 -56 20 -56 41 0 14 -4 25 -10 25 -5 0 -10
-14 -10 -31z"/>
<path d="M9420 670 c-8 -5 -10 -10 -5 -10 6 0 17 5 25 10 8 5 11 10 5 10 -5 0
-17 -5 -25 -10z"/>
<path d="M5401 636 c18 -10 323 -47 973 -116 l947 -101 947 86 c797 72 957 89
1012 107 39 14 57 24 45 26 -11 1 -477 -40 -1035 -93 -558 -52 -1037 -95
-1064 -95 -41 0 -1707 179 -1816 195 l-35 5 26 -14z"/>
</g>
</svg>
